<svg width="28" height="28" viewBox="0 0 28 28" fill="none" xmlns="http://www.w3.org/2000/svg">
<path d="M13.5073 4.09326L8.86621 7.16214V12.8697L13.5073 10.3363L18.1972 12.8811V7.17816L13.5073 4.09326Z" fill="#BB8C58"/>
<path d="M13.5073 11.5718L8.86621 14.0114V19.7211L13.5073 17.8148L18.1972 19.7258V14.0227L13.5073 11.5718Z" fill="#BB8C58"/>
<path d="M5.65607 21.0279L8.02188 20.0644V7.71802L5.65607 9.28336V21.0279Z" fill="#02AAB5"/>
<path d="M2.83691 22.147L4.91717 21.298V9.73877L2.83691 11.1164V22.147Z" fill="#02AAB5"/>
<path d="M21.3993 4.84814L19.038 6.56453V19.4259L21.3993 18.5883V4.84814Z" fill="#02AAB5"/>
<path d="M24.2154 2.80005L22.1375 4.31047V18.3276L24.2132 17.5975L24.2154 2.80005Z" fill="#02AAB5"/>
<path d="M18.1976 20.9068L13.5077 19.0851L2.79999 23.1976V25.2001L13.5077 21.5819L18.1976 23.1496L24.2131 21.2227V18.7854L18.1976 20.9068Z" fill="#6D6E71"/>
</svg>
