<svg width="1920" height="5071" viewBox="0 0 1920 5071" fill="none" xmlns="http://www.w3.org/2000/svg">
<g opacity="0.4">
<circle cx="1593.48" cy="323.431" r="102.525" transform="rotate(-135 1593.48 323.431)" fill="#FBDBDF"/>
<path d="M1810.97 105.943C1791.93 124.983 1769.33 140.087 1744.45 150.392C1719.57 160.697 1692.91 166.001 1665.98 166.001C1639.05 166.001 1612.39 160.697 1587.51 150.392C1562.63 140.087 1540.03 124.983 1520.99 105.943L1665.98 -39.0502L1810.97 105.943Z" fill="#E1F7FA"/>
<path d="M1810.97 395.928C1791.93 376.887 1776.83 354.282 1766.52 329.405C1756.22 304.527 1750.91 277.863 1750.91 250.935C1750.91 224.007 1756.22 197.343 1766.52 172.465C1776.83 147.587 1791.93 124.983 1810.97 105.942L1955.97 250.935L1810.97 395.928Z" fill="#E1F7FA"/>
<path d="M1955.96 250.936C1975.01 231.895 1990.11 209.29 2000.41 184.412C2010.72 159.534 2016.02 132.87 2016.02 105.943C2016.02 79.0151 2010.72 52.3511 2000.41 27.4732C1990.11 2.59524 1975.01 -20.0094 1955.96 -39.0501C1936.92 -58.0908 1914.32 -73.1948 1889.44 -83.4996C1864.56 -93.8043 1837.9 -99.1081 1810.97 -99.1081C1784.04 -99.1081 1757.38 -93.8043 1732.5 -83.4996C1707.62 -73.1948 1685.02 -58.0909 1665.98 -39.0502L1810.97 105.943L1955.96 250.936Z" fill="#E1F7FA"/>
</g>
<g opacity="0.4">
<path d="M784.949 494.964C803.99 475.923 826.595 460.819 851.473 450.514C876.351 440.21 903.015 434.906 929.942 434.906C956.87 434.906 983.534 440.21 1008.41 450.514C1033.29 460.819 1055.89 475.923 1074.94 494.964L929.942 639.957L784.949 494.964Z" fill="#E1F7FA"/>
<path d="M639.957 349.971C658.997 330.93 681.602 315.826 706.48 305.521C731.358 295.217 758.022 289.913 784.949 289.913C811.877 289.913 838.541 295.217 863.419 305.522C888.297 315.826 910.902 330.93 929.942 349.971L784.949 494.964L639.957 349.971Z" fill="#E1F7FA"/>
<path d="M494.964 204.978C514.004 185.937 536.609 170.834 561.487 160.529C586.365 150.224 613.029 144.92 639.957 144.92C666.884 144.92 693.548 150.224 718.426 160.529C743.304 170.834 765.909 185.938 784.949 204.978L639.957 349.971L494.964 204.978Z" fill="#E1F7FA"/>
<path d="M494.964 1074.94C475.923 1055.89 460.819 1033.29 450.515 1008.41C440.21 983.534 434.906 956.87 434.906 929.943C434.906 903.015 440.21 876.351 450.515 851.473C460.82 826.595 475.923 803.99 494.964 784.95L639.957 929.943L494.964 1074.94Z" fill="#E1F7FA"/>
<path d="M204.978 784.95C185.938 765.909 170.834 743.304 160.529 718.426C150.224 693.548 144.92 666.884 144.92 639.957C144.92 613.029 150.224 586.365 160.529 561.487C170.834 536.609 185.938 514.005 204.978 494.964L349.971 639.957L204.978 784.95Z" fill="#E1F7FA"/>
<path d="M349.971 929.942C330.931 910.902 315.827 888.297 305.522 863.419C295.217 838.541 289.913 811.877 289.913 784.95C289.913 758.022 295.217 731.358 305.522 706.48C315.827 681.602 330.931 658.998 349.971 639.957L494.964 784.95L349.971 929.942Z" fill="#E1F7FA"/>
<circle cx="1147.43" cy="1147.43" r="102.525" transform="rotate(135 1147.43 1147.43)" fill="#FBDBDF"/>
<path d="M929.943 929.942C948.983 948.983 964.087 971.588 974.392 996.466C984.697 1021.34 990.001 1048.01 990.001 1074.94C990.001 1101.86 984.697 1128.53 974.392 1153.4C964.087 1178.28 948.983 1200.89 929.943 1219.93L784.95 1074.94L929.943 929.942Z" fill="#E1F7FA"/>
<path d="M639.957 639.957C658.998 658.997 674.102 681.602 684.406 706.48C694.711 731.358 700.015 758.022 700.015 784.95C700.015 811.877 694.711 838.541 684.406 863.419C674.102 888.297 658.998 910.902 639.957 929.942L494.964 784.95L639.957 639.957Z" fill="#E1F7FA"/>
<path d="M1219.93 929.942C1200.89 948.983 1178.28 964.087 1153.4 974.392C1128.53 984.696 1101.86 990 1074.94 990C1048.01 990 1021.34 984.696 996.465 974.392C971.588 964.087 948.983 948.983 929.942 929.942L1074.94 784.949L1219.93 929.942Z" fill="#E1F7FA"/>
<path d="M349.971 349.971C369.012 369.012 384.116 391.616 394.421 416.494C404.725 441.372 410.029 468.036 410.029 494.964C410.029 521.892 404.725 548.556 394.421 573.434C384.116 598.311 369.012 620.916 349.971 639.957L204.978 494.964L349.971 349.971Z" fill="#E1F7FA"/>
<path d="M929.942 639.957C910.902 658.997 888.297 674.101 863.419 684.406C838.541 694.711 811.877 700.015 784.949 700.015C758.022 700.015 731.358 694.711 706.48 684.406C681.602 674.101 658.997 658.997 639.957 639.957L784.95 494.964L929.942 639.957Z" fill="#E1F7FA"/>
<path d="M639.957 349.971C620.916 369.012 598.311 384.116 573.433 394.42C548.556 404.725 521.892 410.029 494.964 410.029C468.036 410.029 441.372 404.725 416.494 394.42C391.616 384.116 369.012 369.012 349.971 349.971L494.964 204.978L639.957 349.971Z" fill="#E1F7FA"/>
<path d="M494.964 494.964C514.005 514.005 529.109 536.609 539.414 561.487C549.718 586.365 555.022 613.029 555.022 639.957C555.022 666.885 549.718 693.549 539.414 718.426C529.109 743.304 514.005 765.909 494.964 784.95L349.971 639.957L494.964 494.964Z" fill="#E1F7FA"/>
<path d="M784.95 494.964C765.909 514.005 743.304 529.109 718.426 539.413C693.548 549.718 666.884 555.022 639.957 555.022C613.029 555.022 586.365 549.718 561.487 539.413C536.609 529.109 514.005 514.005 494.964 494.964L639.957 349.971L784.95 494.964Z" fill="#E1F7FA"/>
<path d="M1074.94 784.95C1055.89 765.909 1033.29 750.805 1008.41 740.5C983.534 730.195 956.87 724.892 929.943 724.892C903.015 724.892 876.351 730.195 851.473 740.5C826.595 750.805 803.991 765.909 784.95 784.95C765.909 803.99 750.805 826.595 740.5 851.473C730.196 876.351 724.892 903.015 724.892 929.942C724.892 956.87 730.196 983.534 740.5 1008.41C750.805 1033.29 765.909 1055.89 784.95 1074.94L929.943 929.942L1074.94 784.95Z" fill="#E1F7FA"/>
<circle cx="204.943" cy="205.014" r="205.051" transform="rotate(-45 204.943 205.014)" fill="#FBDBDF"/>
</g>
<g opacity="0.4">
<path d="M1424.95 1979.95C1443.99 1998.99 1459.1 2021.59 1469.4 2046.47C1479.71 2071.35 1485.01 2098.01 1485.01 2124.94C1485.01 2151.87 1479.7 2178.53 1469.4 2203.41C1459.1 2228.29 1443.99 2250.89 1424.95 2269.94L1279.96 2124.94L1424.95 1979.95Z" fill="#E1F7FA"/>
<path d="M1569.94 1834.96C1588.98 1854 1604.09 1876.6 1614.39 1901.48C1624.7 1926.36 1630 1953.02 1630 1979.95C1630 2006.88 1624.7 2033.54 1614.39 2058.42C1604.09 2083.3 1588.98 2105.9 1569.94 2124.94L1424.95 1979.95L1569.94 1834.96Z" fill="#E1F7FA"/>
<path d="M1714.94 1689.96C1733.98 1709 1749.08 1731.61 1759.39 1756.49C1769.69 1781.36 1774.99 1808.03 1774.99 1834.96C1774.99 1861.88 1769.69 1888.55 1759.39 1913.43C1749.08 1938.3 1733.98 1960.91 1714.94 1979.95L1569.94 1834.96L1714.94 1689.96Z" fill="#E1F7FA"/>
<path d="M844.979 1689.96C864.02 1670.92 886.625 1655.82 911.502 1645.51C936.38 1635.21 963.044 1629.91 989.972 1629.91C1016.9 1629.91 1043.56 1635.21 1068.44 1645.51C1093.32 1655.82 1115.92 1670.92 1134.96 1689.96L989.972 1834.96L844.979 1689.96Z" fill="#E1F7FA"/>
<path d="M1134.97 1399.98C1154.01 1380.94 1176.61 1365.83 1201.49 1355.53C1226.37 1345.22 1253.03 1339.92 1279.96 1339.92C1306.89 1339.92 1333.55 1345.22 1358.43 1355.53C1383.31 1365.83 1405.91 1380.94 1424.95 1399.98L1279.96 1544.97L1134.97 1399.98Z" fill="#E1F7FA"/>
<path d="M989.972 1544.97C1009.01 1525.93 1031.62 1510.83 1056.5 1500.52C1081.37 1490.22 1108.04 1484.91 1134.97 1484.91C1161.89 1484.91 1188.56 1490.22 1213.43 1500.52C1238.31 1510.83 1260.92 1525.93 1279.96 1544.97L1134.96 1689.96L989.972 1544.97Z" fill="#E1F7FA"/>
<circle cx="772.481" cy="2342.43" r="102.525" transform="rotate(-135 772.481 2342.43)" fill="#FBDBDF"/>
<path d="M989.972 2124.94C970.931 2143.98 948.327 2159.09 923.449 2169.39C898.571 2179.7 871.907 2185 844.979 2185C818.052 2185 791.388 2179.7 766.51 2169.39C741.632 2159.09 719.027 2143.98 699.986 2124.94L844.979 1979.95L989.972 2124.94Z" fill="#E1F7FA"/>
<path d="M1279.96 1834.96C1260.92 1854 1238.31 1869.1 1213.43 1879.41C1188.56 1889.71 1161.89 1895.02 1134.96 1895.02C1108.04 1895.02 1081.37 1889.71 1056.5 1879.41C1031.62 1869.1 1009.01 1854 989.972 1834.96L1134.96 1689.96L1279.96 1834.96Z" fill="#E1F7FA"/>
<path d="M989.972 2414.93C970.932 2395.89 955.828 2373.28 945.523 2348.4C935.218 2323.53 929.914 2296.86 929.914 2269.94C929.914 2243.01 935.218 2216.34 945.523 2191.47C955.828 2166.59 970.932 2143.98 989.972 2124.94L1134.97 2269.94L989.972 2414.93Z" fill="#E1F7FA"/>
<path d="M1569.94 1544.97C1550.9 1564.01 1528.3 1579.12 1503.42 1589.42C1478.54 1599.73 1451.88 1605.03 1424.95 1605.03C1398.02 1605.03 1371.36 1599.73 1346.48 1589.42C1321.6 1579.12 1299 1564.01 1279.96 1544.97L1424.95 1399.98L1569.94 1544.97Z" fill="#E1F7FA"/>
<path d="M1279.96 2124.94C1260.92 2105.9 1245.81 2083.3 1235.51 2058.42C1225.2 2033.54 1219.9 2006.88 1219.9 1979.95C1219.9 1953.02 1225.2 1926.36 1235.51 1901.48C1245.81 1876.6 1260.92 1854 1279.96 1834.96L1424.95 1979.95L1279.96 2124.94Z" fill="#E1F7FA"/>
<path d="M1569.94 1834.96C1550.9 1815.92 1535.8 1793.31 1525.49 1768.43C1515.19 1743.56 1509.89 1716.89 1509.89 1689.96C1509.89 1663.04 1515.19 1636.37 1525.49 1611.49C1535.8 1586.62 1550.9 1564.01 1569.94 1544.97L1714.94 1689.96L1569.94 1834.96Z" fill="#E1F7FA"/>
<path d="M1424.95 1689.96C1405.91 1709 1383.31 1724.11 1358.43 1734.41C1333.55 1744.72 1306.89 1750.02 1279.96 1750.02C1253.03 1750.02 1226.37 1744.72 1201.49 1734.41C1176.61 1724.11 1154.01 1709 1134.96 1689.96L1279.96 1544.97L1424.95 1689.96Z" fill="#E1F7FA"/>
<path d="M1424.95 1979.95C1405.91 1960.91 1390.81 1938.3 1380.5 1913.43C1370.2 1888.55 1364.89 1861.88 1364.89 1834.96C1364.89 1808.03 1370.2 1781.37 1380.5 1756.49C1390.81 1731.61 1405.91 1709 1424.95 1689.96L1569.94 1834.96L1424.95 1979.95Z" fill="#E1F7FA"/>
<path d="M1134.96 2269.94C1154.01 2250.89 1169.11 2228.29 1179.41 2203.41C1189.72 2178.53 1195.02 2151.87 1195.02 2124.94C1195.02 2098.02 1189.72 2071.35 1179.41 2046.47C1169.11 2021.6 1154.01 1998.99 1134.96 1979.95C1115.92 1960.91 1093.32 1945.81 1068.44 1935.5C1043.56 1925.2 1016.9 1919.89 989.972 1919.89C963.044 1919.89 936.38 1925.2 911.502 1935.5C886.625 1945.81 864.02 1960.91 844.979 1979.95L989.972 2124.94L1134.96 2269.94Z" fill="#E1F7FA"/>
<circle cx="1714.9" cy="1399.94" r="205.051" transform="rotate(45 1714.9 1399.94)" fill="#FBDBDF"/>
</g>
<g opacity="0.4">
<path d="M1424.95 4159.95C1443.99 4178.99 1459.1 4201.59 1469.4 4226.47C1479.71 4251.35 1485.01 4278.01 1485.01 4304.94C1485.01 4331.87 1479.7 4358.53 1469.4 4383.41C1459.1 4408.29 1443.99 4430.89 1424.95 4449.94L1279.96 4304.94L1424.95 4159.95Z" fill="#E1F7FA"/>
<path d="M1569.94 4014.96C1588.98 4034 1604.09 4056.6 1614.39 4081.48C1624.7 4106.36 1630 4133.02 1630 4159.95C1630 4186.88 1624.7 4213.54 1614.39 4238.42C1604.09 4263.3 1588.98 4285.9 1569.94 4304.94L1424.95 4159.95L1569.94 4014.96Z" fill="#E1F7FA"/>
<path d="M1714.94 3869.96C1733.98 3889 1749.08 3911.61 1759.39 3936.49C1769.69 3961.36 1774.99 3988.03 1774.99 4014.96C1774.99 4041.88 1769.69 4068.55 1759.39 4093.43C1749.08 4118.3 1733.98 4140.91 1714.94 4159.95L1569.94 4014.96L1714.94 3869.96Z" fill="#E1F7FA"/>
<path d="M844.979 3869.96C864.02 3850.92 886.625 3835.82 911.502 3825.51C936.38 3815.21 963.044 3809.91 989.972 3809.91C1016.9 3809.91 1043.56 3815.21 1068.44 3825.51C1093.32 3835.82 1115.92 3850.92 1134.96 3869.96L989.972 4014.96L844.979 3869.96Z" fill="#E1F7FA"/>
<path d="M1134.97 3579.98C1154.01 3560.94 1176.61 3545.83 1201.49 3535.53C1226.37 3525.22 1253.03 3519.92 1279.96 3519.92C1306.89 3519.92 1333.55 3525.22 1358.43 3535.53C1383.31 3545.83 1405.91 3560.94 1424.95 3579.98L1279.96 3724.97L1134.97 3579.98Z" fill="#E1F7FA"/>
<path d="M989.972 3724.97C1009.01 3705.93 1031.62 3690.83 1056.5 3680.52C1081.37 3670.22 1108.04 3664.91 1134.97 3664.91C1161.89 3664.91 1188.56 3670.22 1213.43 3680.52C1238.31 3690.83 1260.92 3705.93 1279.96 3724.97L1134.96 3869.96L989.972 3724.97Z" fill="#E1F7FA"/>
<circle cx="772.481" cy="4522.43" r="102.525" transform="rotate(-135 772.481 4522.43)" fill="#FBDBDF"/>
<path d="M989.972 4304.94C970.931 4323.98 948.327 4339.09 923.449 4349.39C898.571 4359.7 871.907 4365 844.979 4365C818.052 4365 791.388 4359.7 766.51 4349.39C741.632 4339.09 719.027 4323.98 699.986 4304.94L844.979 4159.95L989.972 4304.94Z" fill="#E1F7FA"/>
<path d="M1279.96 4014.96C1260.92 4034 1238.31 4049.1 1213.43 4059.41C1188.56 4069.71 1161.89 4075.01 1134.96 4075.01C1108.04 4075.01 1081.37 4069.71 1056.5 4059.41C1031.62 4049.1 1009.01 4034 989.972 4014.96L1134.96 3869.96L1279.96 4014.96Z" fill="#E1F7FA"/>
<path d="M989.972 4594.93C970.932 4575.89 955.828 4553.28 945.523 4528.4C935.218 4503.53 929.914 4476.86 929.914 4449.94C929.914 4423.01 935.218 4396.34 945.523 4371.47C955.828 4346.59 970.932 4323.98 989.972 4304.94L1134.97 4449.94L989.972 4594.93Z" fill="#E1F7FA"/>
<path d="M1569.94 3724.97C1550.9 3744.01 1528.3 3759.12 1503.42 3769.42C1478.54 3779.73 1451.88 3785.03 1424.95 3785.03C1398.02 3785.03 1371.36 3779.73 1346.48 3769.42C1321.6 3759.12 1299 3744.01 1279.96 3724.97L1424.95 3579.98L1569.94 3724.97Z" fill="#E1F7FA"/>
<path d="M1279.96 4304.94C1260.92 4285.9 1245.81 4263.3 1235.51 4238.42C1225.2 4213.54 1219.9 4186.88 1219.9 4159.95C1219.9 4133.02 1225.2 4106.36 1235.51 4081.48C1245.81 4056.6 1260.92 4034 1279.96 4014.96L1424.95 4159.95L1279.96 4304.94Z" fill="#E1F7FA"/>
<path d="M1569.94 4014.96C1550.9 3995.92 1535.8 3973.31 1525.49 3948.43C1515.19 3923.56 1509.89 3896.89 1509.89 3869.96C1509.89 3843.04 1515.19 3816.37 1525.49 3791.49C1535.8 3766.62 1550.9 3744.01 1569.94 3724.97L1714.94 3869.96L1569.94 4014.96Z" fill="#E1F7FA"/>
<path d="M1424.95 3869.96C1405.91 3889 1383.31 3904.11 1358.43 3914.41C1333.55 3924.72 1306.89 3930.02 1279.96 3930.02C1253.03 3930.02 1226.37 3924.72 1201.49 3914.41C1176.61 3904.11 1154.01 3889 1134.96 3869.96L1279.96 3724.97L1424.95 3869.96Z" fill="#E1F7FA"/>
<path d="M1424.95 4159.95C1405.91 4140.91 1390.81 4118.3 1380.5 4093.43C1370.2 4068.55 1364.89 4041.88 1364.89 4014.96C1364.89 3988.03 1370.2 3961.37 1380.5 3936.49C1390.81 3911.61 1405.91 3889 1424.95 3869.96L1569.94 4014.96L1424.95 4159.95Z" fill="#E1F7FA"/>
<path d="M1134.96 4449.94C1154.01 4430.89 1169.11 4408.29 1179.41 4383.41C1189.72 4358.53 1195.02 4331.87 1195.02 4304.94C1195.02 4278.02 1189.72 4251.35 1179.41 4226.47C1169.11 4201.6 1154.01 4178.99 1134.96 4159.95C1115.92 4140.91 1093.32 4125.81 1068.44 4115.5C1043.56 4105.2 1016.9 4099.89 989.972 4099.89C963.044 4099.89 936.38 4105.2 911.502 4115.5C886.625 4125.81 864.02 4140.91 844.979 4159.95L989.972 4304.94L1134.96 4449.94Z" fill="#E1F7FA"/>
<circle cx="1714.9" cy="3579.94" r="205.051" transform="rotate(45 1714.9 3579.94)" fill="#FBDBDF"/>
</g>
<g opacity="0.4">
<path d="M784.949 2914.96C803.99 2895.92 826.595 2880.82 851.473 2870.51C876.351 2860.21 903.015 2854.91 929.942 2854.91C956.87 2854.91 983.534 2860.21 1008.41 2870.51C1033.29 2880.82 1055.89 2895.92 1074.94 2914.96L929.942 3059.96L784.949 2914.96Z" fill="#E1F7FA"/>
<path d="M639.957 2769.97C658.997 2750.93 681.602 2735.83 706.48 2725.52C731.358 2715.22 758.022 2709.91 784.949 2709.91C811.877 2709.91 838.541 2715.22 863.419 2725.52C888.297 2735.83 910.902 2750.93 929.942 2769.97L784.949 2914.96L639.957 2769.97Z" fill="#E1F7FA"/>
<path d="M494.964 2624.98C514.004 2605.94 536.609 2590.83 561.487 2580.53C586.365 2570.22 613.029 2564.92 639.957 2564.92C666.884 2564.92 693.548 2570.22 718.426 2580.53C743.304 2590.83 765.909 2605.94 784.949 2624.98L639.957 2769.97L494.964 2624.98Z" fill="#E1F7FA"/>
<path d="M494.964 3494.94C475.923 3475.89 460.819 3453.29 450.515 3428.41C440.21 3403.53 434.906 3376.87 434.906 3349.94C434.906 3323.01 440.21 3296.35 450.515 3271.47C460.82 3246.6 475.923 3223.99 494.964 3204.95L639.957 3349.94L494.964 3494.94Z" fill="#E1F7FA"/>
<path d="M204.978 3204.95C185.938 3185.91 170.834 3163.3 160.529 3138.43C150.224 3113.55 144.92 3086.88 144.92 3059.96C144.92 3033.03 150.224 3006.36 160.529 2981.49C170.834 2956.61 185.938 2934 204.978 2914.96L349.971 3059.96L204.978 3204.95Z" fill="#E1F7FA"/>
<path d="M349.971 3349.94C330.931 3330.9 315.827 3308.3 305.522 3283.42C295.217 3258.54 289.913 3231.88 289.913 3204.95C289.913 3178.02 295.217 3151.36 305.522 3126.48C315.827 3101.6 330.931 3079 349.971 3059.96L494.964 3204.95L349.971 3349.94Z" fill="#E1F7FA"/>
<circle cx="1147.43" cy="3567.43" r="102.525" transform="rotate(135 1147.43 3567.43)" fill="#FBDBDF"/>
<path d="M929.943 3349.94C948.983 3368.98 964.087 3391.59 974.392 3416.47C984.697 3441.34 990.001 3468.01 990.001 3494.94C990.001 3521.86 984.697 3548.53 974.392 3573.4C964.087 3598.28 948.983 3620.89 929.943 3639.93L784.95 3494.94L929.943 3349.94Z" fill="#E1F7FA"/>
<path d="M639.957 3059.96C658.998 3079 674.102 3101.6 684.406 3126.48C694.711 3151.36 700.015 3178.02 700.015 3204.95C700.015 3231.88 694.711 3258.54 684.406 3283.42C674.102 3308.3 658.998 3330.9 639.957 3349.94L494.964 3204.95L639.957 3059.96Z" fill="#E1F7FA"/>
<path d="M1219.93 3349.94C1200.89 3368.98 1178.28 3384.09 1153.4 3394.39C1128.53 3404.7 1101.86 3410 1074.94 3410C1048.01 3410 1021.34 3404.7 996.465 3394.39C971.588 3384.09 948.983 3368.98 929.942 3349.94L1074.94 3204.95L1219.93 3349.94Z" fill="#E1F7FA"/>
<path d="M349.971 2769.97C369.012 2789.01 384.116 2811.62 394.421 2836.49C404.725 2861.37 410.029 2888.04 410.029 2914.96C410.029 2941.89 404.725 2968.56 394.421 2993.43C384.116 3018.31 369.012 3040.92 349.971 3059.96L204.978 2914.96L349.971 2769.97Z" fill="#E1F7FA"/>
<path d="M929.942 3059.96C910.902 3079 888.297 3094.1 863.419 3104.41C838.541 3114.71 811.877 3120.01 784.949 3120.01C758.022 3120.01 731.358 3114.71 706.48 3104.41C681.602 3094.1 658.997 3079 639.957 3059.96L784.95 2914.96L929.942 3059.96Z" fill="#E1F7FA"/>
<path d="M639.957 2769.97C620.916 2789.01 598.311 2804.12 573.433 2814.42C548.556 2824.73 521.892 2830.03 494.964 2830.03C468.036 2830.03 441.372 2824.73 416.494 2814.42C391.616 2804.12 369.012 2789.01 349.971 2769.97L494.964 2624.98L639.957 2769.97Z" fill="#E1F7FA"/>
<path d="M494.964 2914.96C514.005 2934 529.109 2956.61 539.414 2981.49C549.718 3006.37 555.022 3033.03 555.022 3059.96C555.022 3086.88 549.718 3113.55 539.414 3138.43C529.109 3163.3 514.005 3185.91 494.964 3204.95L349.971 3059.96L494.964 2914.96Z" fill="#E1F7FA"/>
<path d="M784.95 2914.96C765.909 2934 743.304 2949.11 718.426 2959.41C693.548 2969.72 666.884 2975.02 639.957 2975.02C613.029 2975.02 586.365 2969.72 561.487 2959.41C536.609 2949.11 514.005 2934 494.964 2914.96L639.957 2769.97L784.95 2914.96Z" fill="#E1F7FA"/>
<path d="M1074.94 3204.95C1055.89 3185.91 1033.29 3170.81 1008.41 3160.5C983.534 3150.2 956.87 3144.89 929.943 3144.89C903.015 3144.89 876.351 3150.2 851.473 3160.5C826.595 3170.81 803.991 3185.91 784.95 3204.95C765.909 3223.99 750.805 3246.6 740.5 3271.47C730.196 3296.35 724.892 3323.01 724.892 3349.94C724.892 3376.87 730.196 3403.53 740.5 3428.41C750.805 3453.29 765.909 3475.89 784.95 3494.94L929.943 3349.94L1074.94 3204.95Z" fill="#E1F7FA"/>
<circle cx="204.943" cy="2625.01" r="205.051" transform="rotate(-45 204.943 2625.01)" fill="#FBDBDF"/>
</g>
<g opacity="0.4">
<path d="M784.949 5094.96C803.99 5075.92 826.595 5060.82 851.473 5050.51C876.351 5040.21 903.015 5034.91 929.942 5034.91C956.87 5034.91 983.534 5040.21 1008.41 5050.51C1033.29 5060.82 1055.89 5075.92 1074.94 5094.96L929.942 5239.96L784.949 5094.96Z" fill="#E1F7FA"/>
<path d="M639.957 4949.97C658.997 4930.93 681.602 4915.83 706.48 4905.52C731.358 4895.22 758.022 4889.91 784.949 4889.91C811.877 4889.91 838.541 4895.22 863.419 4905.52C888.297 4915.83 910.902 4930.93 929.942 4949.97L784.949 5094.96L639.957 4949.97Z" fill="#E1F7FA"/>
<path d="M494.964 4804.98C514.004 4785.94 536.609 4770.83 561.487 4760.53C586.365 4750.22 613.029 4744.92 639.957 4744.92C666.884 4744.92 693.548 4750.22 718.426 4760.53C743.304 4770.83 765.909 4785.94 784.949 4804.98L639.957 4949.97L494.964 4804.98Z" fill="#E1F7FA"/>
<path d="M349.971 4949.97C369.012 4969.01 384.116 4991.62 394.421 5016.49C404.725 5041.37 410.029 5068.04 410.029 5094.96C410.029 5121.89 404.725 5148.56 394.421 5173.43C384.116 5198.31 369.012 5220.92 349.971 5239.96L204.978 5094.96L349.971 4949.97Z" fill="#E1F7FA"/>
<path d="M639.957 4949.97C620.916 4969.01 598.311 4984.12 573.433 4994.42C548.556 5004.73 521.892 5010.03 494.964 5010.03C468.036 5010.03 441.372 5004.73 416.494 4994.42C391.616 4984.12 369.012 4969.01 349.971 4949.97L494.964 4804.98L639.957 4949.97Z" fill="#E1F7FA"/>
<path d="M784.95 5094.96C765.909 5114 743.304 5129.11 718.426 5139.41C693.548 5149.72 666.884 5155.02 639.957 5155.02C613.029 5155.02 586.365 5149.72 561.487 5139.41C536.609 5129.11 514.005 5114 494.964 5094.96L639.957 4949.97L784.95 5094.96Z" fill="#E1F7FA"/>
<circle cx="204.943" cy="4805.01" r="205.051" transform="rotate(-45 204.943 4805.01)" fill="#FBDBDF"/>
</g>
</svg>
