<svg width="375" height="7571" viewBox="0 0 375 7571" fill="none" xmlns="http://www.w3.org/2000/svg">
<g opacity="0.4">
<circle cx="228.396" cy="145.309" r="35.7505" transform="rotate(-135 228.396 145.309)" fill="#FBDBDF"/>
<path d="M304.235 69.4714C297.596 76.1109 289.714 81.3777 281.039 84.9709C272.364 88.5642 263.066 90.4136 253.676 90.4136C244.287 90.4136 234.989 88.5642 226.314 84.9709C217.639 81.3777 209.757 76.1109 203.117 69.4714L253.676 18.9125L304.235 69.4714Z" fill="#E1F7FA"/>
<path d="M405.353 -31.6465C398.714 -25.007 390.832 -19.7403 382.157 -16.147C373.482 -12.5537 364.184 -10.7043 354.794 -10.7043C345.405 -10.7043 336.107 -12.5537 327.432 -16.147C318.757 -19.7403 310.875 -25.007 304.235 -31.6465L354.794 -82.2054L405.353 -31.6465Z" fill="#E1F7FA"/>
<path d="M304.235 170.589C297.596 163.95 292.329 156.067 288.736 147.392C285.143 138.717 283.293 129.42 283.293 120.03C283.293 110.64 285.143 101.343 288.736 92.6678C292.329 83.9929 297.596 76.1107 304.235 69.4712L354.794 120.03L304.235 170.589Z" fill="#E1F7FA"/>
<path d="M405.353 69.4713C398.713 62.8318 393.447 54.9496 389.853 46.2747C386.26 37.5998 384.411 28.3021 384.411 18.9124C384.411 9.52276 386.26 0.225044 389.853 -8.44987C393.447 -17.1248 398.713 -25.007 405.353 -31.6465L455.912 18.9124L405.353 69.4713Z" fill="#E1F7FA"/>
<path d="M354.794 120.03C361.434 113.391 366.701 105.509 370.294 96.8336C373.887 88.1587 375.737 78.861 375.737 69.4713C375.737 60.0817 373.887 50.784 370.294 42.1091C366.701 33.4341 361.434 25.5519 354.794 18.9124C348.155 12.2729 340.273 7.0062 331.598 3.41294C322.923 -0.18033 313.625 -2.02976 304.235 -2.02976C294.846 -2.02977 285.548 -0.180336 276.873 3.41293C268.198 7.00619 260.316 12.2729 253.677 18.9124L304.235 69.4713L354.794 120.03Z" fill="#E1F7FA"/>
</g>
<g opacity="0.4">
<path d="M253.676 837.795C260.316 831.155 268.198 825.888 276.873 822.295C285.548 818.702 294.846 816.852 304.235 816.852C313.625 816.852 322.923 818.702 331.597 822.295C340.272 825.888 348.155 831.155 354.794 837.795L304.235 888.354L253.676 837.795Z" fill="#E1F7FA"/>
<path d="M354.794 736.677C361.434 730.037 369.316 724.771 377.991 721.177C386.666 717.584 395.964 715.735 405.353 715.735C414.743 715.735 424.041 717.584 432.715 721.177C441.39 724.771 449.273 730.037 455.912 736.677L405.353 787.236L354.794 736.677Z" fill="#E1F7FA"/>
<path d="M304.235 787.236C310.874 780.596 318.757 775.33 327.432 771.736C336.107 768.143 345.404 766.294 354.794 766.294C364.184 766.294 373.481 768.143 382.156 771.736C390.831 775.33 398.713 780.596 405.353 787.236L354.794 837.795L304.235 787.236Z" fill="#E1F7FA"/>
<circle cx="228.396" cy="1065.31" r="35.7505" transform="rotate(-135 228.396 1065.31)" fill="#FBDBDF"/>
<path d="M304.235 989.471C297.596 996.111 289.714 1001.38 281.039 1004.97C272.364 1008.56 263.066 1010.41 253.676 1010.41C244.287 1010.41 234.989 1008.56 226.314 1004.97C217.639 1001.38 209.757 996.111 203.117 989.471L253.676 938.913L304.235 989.471Z" fill="#E1F7FA"/>
<path d="M405.353 888.354C398.714 894.993 390.832 900.26 382.157 903.853C373.482 907.446 364.184 909.296 354.794 909.296C345.405 909.296 336.107 907.446 327.432 903.853C318.757 900.26 310.875 894.993 304.235 888.354L354.794 837.795L405.353 888.354Z" fill="#E1F7FA"/>
<path d="M304.235 1090.59C297.596 1083.95 292.329 1076.07 288.736 1067.39C285.143 1058.72 283.293 1049.42 283.293 1040.03C283.293 1030.64 285.143 1021.34 288.736 1012.67C292.329 1003.99 297.596 996.111 304.235 989.471L354.794 1040.03L304.235 1090.59Z" fill="#E1F7FA"/>
<path d="M405.353 989.471C398.713 982.832 393.447 974.95 389.853 966.275C386.26 957.6 384.411 948.302 384.411 938.912C384.411 929.523 386.26 920.225 389.853 911.55C393.447 902.875 398.713 894.993 405.353 888.354L455.912 938.912L405.353 989.471Z" fill="#E1F7FA"/>
<path d="M455.912 837.795C449.272 844.434 441.39 849.701 432.715 853.294C424.04 856.887 414.743 858.737 405.353 858.737C395.963 858.737 386.666 856.887 377.991 853.294C369.316 849.701 361.434 844.434 354.794 837.795L405.353 787.236L455.912 837.795Z" fill="#E1F7FA"/>
<path d="M354.794 1040.03C361.434 1033.39 366.701 1025.51 370.294 1016.83C373.887 1008.16 375.737 998.861 375.737 989.471C375.737 980.082 373.887 970.784 370.294 962.109C366.701 953.434 361.434 945.552 354.794 938.912C348.155 932.273 340.273 927.006 331.598 923.413C322.923 919.82 313.625 917.97 304.235 917.97C294.846 917.97 285.548 919.82 276.873 923.413C268.198 927.006 260.316 932.273 253.677 938.912L304.235 989.471L354.794 1040.03Z" fill="#E1F7FA"/>
</g>
<g opacity="0.4">
<path d="M273.912 408.794C280.552 402.155 288.434 396.888 297.109 393.295C305.784 389.702 315.082 387.852 324.471 387.852C333.861 387.852 343.159 389.702 351.834 393.295C360.508 396.888 368.391 402.155 375.03 408.794L324.471 459.353L273.912 408.794Z" fill="#E1F7FA"/>
<path d="M223.353 358.236C229.993 351.596 237.875 346.33 246.55 342.736C255.225 339.143 264.523 337.294 273.912 337.294C283.302 337.294 292.6 339.143 301.275 342.736C309.949 346.33 317.832 351.596 324.471 358.236L273.912 408.795L223.353 358.236Z" fill="#E1F7FA"/>
<path d="M172.795 307.677C179.434 301.037 187.316 295.771 195.991 292.178C204.666 288.584 213.964 286.735 223.353 286.735C232.743 286.735 242.041 288.584 250.716 292.178C259.391 295.771 267.273 301.038 273.912 307.677L223.353 358.236L172.795 307.677Z" fill="#E1F7FA"/>
<path d="M172.795 611.03C166.155 604.391 160.889 596.508 157.295 587.834C153.702 579.159 151.853 569.861 151.853 560.471C151.853 551.082 153.702 541.784 157.295 533.109C160.889 524.434 166.155 516.552 172.795 509.912L223.354 560.471L172.795 611.03Z" fill="#E1F7FA"/>
<path d="M71.6767 509.912C65.0373 503.273 59.7705 495.391 56.1773 486.716C52.584 478.041 50.7346 468.743 50.7346 459.353C50.7346 449.964 52.584 440.666 56.1773 431.991C59.7705 423.316 65.0373 415.434 71.6768 408.794L122.236 459.353L71.6767 509.912Z" fill="#E1F7FA"/>
<path d="M122.236 560.472C115.596 553.832 110.329 545.95 106.736 537.275C103.143 528.6 101.294 519.302 101.294 509.913C101.294 500.523 103.143 491.225 106.736 482.55C110.329 473.875 115.596 465.993 122.236 459.354L172.795 509.913L122.236 560.472Z" fill="#E1F7FA"/>
<circle cx="400.309" cy="636.31" r="35.7505" transform="rotate(135 400.309 636.31)" fill="#FBDBDF"/>
<path d="M324.471 560.471C331.111 567.111 336.378 574.993 339.971 583.668C343.564 592.343 345.414 601.641 345.414 611.03C345.414 620.42 343.564 629.718 339.971 638.392C336.378 647.067 331.111 654.95 324.471 661.589L273.913 611.03L324.471 560.471Z" fill="#E1F7FA"/>
<path d="M223.354 459.353C229.993 465.993 235.26 473.875 238.853 482.55C242.446 491.225 244.296 500.523 244.296 509.912C244.296 519.302 242.446 528.6 238.853 537.275C235.26 545.949 229.993 553.832 223.354 560.471L172.795 509.912L223.354 459.353Z" fill="#E1F7FA"/>
<path d="M425.589 560.471C418.95 567.111 411.067 572.377 402.392 575.971C393.717 579.564 384.42 581.413 375.03 581.413C365.64 581.413 356.343 579.564 347.668 575.971C338.993 572.377 331.111 567.111 324.471 560.471L375.03 509.912L425.589 560.471Z" fill="#E1F7FA"/>
<path d="M122.236 358.236C128.875 364.875 134.142 372.758 137.735 381.433C141.328 390.107 143.178 399.405 143.178 408.795C143.178 418.185 141.328 427.482 137.735 436.157C134.142 444.832 128.875 452.714 122.236 459.354L71.6768 408.795L122.236 358.236Z" fill="#E1F7FA"/>
<path d="M324.471 459.354C317.832 465.993 309.95 471.26 301.275 474.853C292.6 478.447 283.302 480.296 273.912 480.296C264.523 480.296 255.225 478.447 246.55 474.853C237.875 471.26 229.993 465.993 223.354 459.354L273.912 408.795L324.471 459.354Z" fill="#E1F7FA"/>
<path d="M223.353 358.236C216.714 364.875 208.832 370.142 200.157 373.735C191.482 377.328 182.184 379.178 172.795 379.178C163.405 379.178 154.107 377.328 145.432 373.735C136.757 370.142 128.875 364.875 122.236 358.236L172.795 307.677L223.353 358.236Z" fill="#E1F7FA"/>
<path d="M172.795 408.795C179.434 415.434 184.701 423.316 188.294 431.991C191.887 440.666 193.737 449.964 193.737 459.353C193.737 468.743 191.887 478.041 188.294 486.716C184.701 495.391 179.434 503.273 172.795 509.912L122.236 459.353L172.795 408.795Z" fill="#E1F7FA"/>
<path d="M273.912 408.794C267.273 415.434 259.391 420.701 250.716 424.294C242.041 427.887 232.743 429.737 223.354 429.737C213.964 429.737 204.666 427.887 195.991 424.294C187.316 420.701 179.434 415.434 172.795 408.794L223.354 358.236L273.912 408.794Z" fill="#E1F7FA"/>
<path d="M375.03 509.912C368.391 503.273 360.509 498.006 351.834 494.413C343.159 490.82 333.861 488.97 324.471 488.97C315.082 488.97 305.784 490.82 297.109 494.413C288.434 498.006 280.552 503.273 273.913 509.912C267.273 516.552 262.006 524.434 258.413 533.109C254.82 541.784 252.97 551.082 252.97 560.471C252.97 569.861 254.82 579.159 258.413 587.833C262.006 596.508 267.273 604.391 273.913 611.03L324.471 560.471L375.03 509.912Z" fill="#E1F7FA"/>
<circle cx="71.6643" cy="307.689" r="71.5011" transform="rotate(-45 71.6643 307.689)" fill="#FBDBDF"/>
</g>
<g opacity="0.4">
<path d="M253.676 1719.79C260.316 1713.16 268.198 1707.89 276.873 1704.3C285.548 1700.7 294.846 1698.85 304.235 1698.85C313.625 1698.85 322.923 1700.7 331.597 1704.3C340.272 1707.89 348.155 1713.16 354.794 1719.79L304.235 1770.35L253.676 1719.79Z" fill="#E1F7FA"/>
<path d="M354.794 1618.68C361.434 1612.04 369.316 1606.77 377.991 1603.18C386.666 1599.58 395.964 1597.73 405.353 1597.73C414.743 1597.73 424.041 1599.58 432.715 1603.18C441.39 1606.77 449.273 1612.04 455.912 1618.68L405.353 1669.24L354.794 1618.68Z" fill="#E1F7FA"/>
<path d="M304.235 1669.24C310.874 1662.6 318.757 1657.33 327.432 1653.74C336.107 1650.14 345.404 1648.29 354.794 1648.29C364.184 1648.29 373.481 1650.14 382.156 1653.74C390.831 1657.33 398.713 1662.6 405.353 1669.24L354.794 1719.79L304.235 1669.24Z" fill="#E1F7FA"/>
<circle cx="228.396" cy="1947.31" r="35.7505" transform="rotate(-135 228.396 1947.31)" fill="#FBDBDF"/>
<path d="M304.235 1871.47C297.596 1878.11 289.714 1883.38 281.039 1886.97C272.364 1890.56 263.066 1892.41 253.676 1892.41C244.287 1892.41 234.989 1890.56 226.314 1886.97C217.639 1883.38 209.757 1878.11 203.117 1871.47L253.676 1820.91L304.235 1871.47Z" fill="#E1F7FA"/>
<path d="M405.353 1770.35C398.714 1776.99 390.832 1782.26 382.157 1785.85C373.482 1789.45 364.184 1791.3 354.794 1791.3C345.405 1791.3 336.107 1789.45 327.432 1785.85C318.757 1782.26 310.875 1776.99 304.235 1770.35L354.794 1719.79L405.353 1770.35Z" fill="#E1F7FA"/>
<path d="M304.235 1972.59C297.596 1965.95 292.329 1958.07 288.736 1949.39C285.143 1940.72 283.293 1931.42 283.293 1922.03C283.293 1912.64 285.143 1903.34 288.736 1894.67C292.329 1885.99 297.596 1878.11 304.235 1871.47L354.794 1922.03L304.235 1972.59Z" fill="#E1F7FA"/>
<path d="M405.353 1871.47C398.713 1864.83 393.447 1856.95 389.853 1848.27C386.26 1839.6 384.411 1830.3 384.411 1820.91C384.411 1811.52 386.26 1802.23 389.853 1793.55C393.447 1784.88 398.713 1776.99 405.353 1770.35L455.912 1820.91L405.353 1871.47Z" fill="#E1F7FA"/>
<path d="M455.912 1719.79C449.272 1726.43 441.39 1731.7 432.715 1735.29C424.04 1738.89 414.743 1740.74 405.353 1740.74C395.963 1740.74 386.666 1738.89 377.991 1735.29C369.316 1731.7 361.434 1726.43 354.794 1719.79L405.353 1669.24L455.912 1719.79Z" fill="#E1F7FA"/>
<path d="M354.794 1922.03C361.434 1915.39 366.701 1907.51 370.294 1898.83C373.887 1890.16 375.737 1880.86 375.737 1871.47C375.737 1862.08 373.887 1852.78 370.294 1844.11C366.701 1835.43 361.434 1827.55 354.794 1820.91C348.155 1814.27 340.273 1809.01 331.598 1805.41C322.923 1801.82 313.625 1799.97 304.235 1799.97C294.846 1799.97 285.548 1801.82 276.873 1805.41C268.198 1809.01 260.316 1814.27 253.677 1820.91L304.235 1871.47L354.794 1922.03Z" fill="#E1F7FA"/>
</g>
<g opacity="0.4">
<path d="M253.676 2602.79C260.316 2596.16 268.198 2590.89 276.873 2587.3C285.548 2583.7 294.846 2581.85 304.235 2581.85C313.625 2581.85 322.923 2583.7 331.597 2587.3C340.272 2590.89 348.155 2596.16 354.794 2602.79L304.235 2653.35L253.676 2602.79Z" fill="#E1F7FA"/>
<path d="M354.794 2501.68C361.434 2495.04 369.316 2489.77 377.991 2486.18C386.666 2482.58 395.964 2480.73 405.353 2480.73C414.743 2480.73 424.041 2482.58 432.715 2486.18C441.39 2489.77 449.273 2495.04 455.912 2501.68L405.353 2552.24L354.794 2501.68Z" fill="#E1F7FA"/>
<path d="M304.235 2552.24C310.874 2545.6 318.757 2540.33 327.432 2536.74C336.107 2533.14 345.404 2531.29 354.794 2531.29C364.184 2531.29 373.481 2533.14 382.156 2536.74C390.831 2540.33 398.713 2545.6 405.353 2552.24L354.794 2602.79L304.235 2552.24Z" fill="#E1F7FA"/>
<circle cx="228.396" cy="2830.31" r="35.7505" transform="rotate(-135 228.396 2830.31)" fill="#FBDBDF"/>
<path d="M304.235 2754.47C297.596 2761.11 289.714 2766.38 281.039 2769.97C272.364 2773.56 263.066 2775.41 253.676 2775.41C244.287 2775.41 234.989 2773.56 226.314 2769.97C217.639 2766.38 209.757 2761.11 203.117 2754.47L253.676 2703.91L304.235 2754.47Z" fill="#E1F7FA"/>
<path d="M405.353 2653.35C398.714 2659.99 390.832 2665.26 382.157 2668.85C373.482 2672.45 364.184 2674.3 354.794 2674.3C345.405 2674.3 336.107 2672.45 327.432 2668.85C318.757 2665.26 310.875 2659.99 304.235 2653.35L354.794 2602.79L405.353 2653.35Z" fill="#E1F7FA"/>
<path d="M304.235 2855.59C297.596 2848.95 292.329 2841.07 288.736 2832.39C285.143 2823.72 283.293 2814.42 283.293 2805.03C283.293 2795.64 285.143 2786.34 288.736 2777.67C292.329 2768.99 297.596 2761.11 304.235 2754.47L354.794 2805.03L304.235 2855.59Z" fill="#E1F7FA"/>
<path d="M405.353 2754.47C398.713 2747.83 393.447 2739.95 389.853 2731.27C386.26 2722.6 384.411 2713.3 384.411 2703.91C384.411 2694.52 386.26 2685.23 389.853 2676.55C393.447 2667.88 398.713 2659.99 405.353 2653.35L455.912 2703.91L405.353 2754.47Z" fill="#E1F7FA"/>
<path d="M455.912 2602.79C449.272 2609.43 441.39 2614.7 432.715 2618.29C424.04 2621.89 414.743 2623.74 405.353 2623.74C395.963 2623.74 386.666 2621.89 377.991 2618.29C369.316 2614.7 361.434 2609.43 354.794 2602.79L405.353 2552.24L455.912 2602.79Z" fill="#E1F7FA"/>
<path d="M354.794 2805.03C361.434 2798.39 366.701 2790.51 370.294 2781.83C373.887 2773.16 375.737 2763.86 375.737 2754.47C375.737 2745.08 373.887 2735.78 370.294 2727.11C366.701 2718.43 361.434 2710.55 354.794 2703.91C348.155 2697.27 340.273 2692.01 331.598 2688.41C322.923 2684.82 313.625 2682.97 304.235 2682.97C294.846 2682.97 285.548 2684.82 276.873 2688.41C268.198 2692.01 260.316 2697.27 253.677 2703.91L304.235 2754.47L354.794 2805.03Z" fill="#E1F7FA"/>
</g>
<g opacity="0.4">
<path d="M253.676 3490.79C260.316 3484.16 268.198 3478.89 276.873 3475.3C285.548 3471.7 294.846 3469.85 304.235 3469.85C313.625 3469.85 322.923 3471.7 331.597 3475.3C340.272 3478.89 348.155 3484.16 354.794 3490.79L304.235 3541.35L253.676 3490.79Z" fill="#E1F7FA"/>
<path d="M354.794 3389.68C361.434 3383.04 369.316 3377.77 377.991 3374.18C386.666 3370.58 395.964 3368.73 405.353 3368.73C414.743 3368.73 424.041 3370.58 432.715 3374.18C441.39 3377.77 449.273 3383.04 455.912 3389.68L405.353 3440.24L354.794 3389.68Z" fill="#E1F7FA"/>
<path d="M304.235 3440.24C310.874 3433.6 318.757 3428.33 327.432 3424.74C336.107 3421.14 345.404 3419.29 354.794 3419.29C364.184 3419.29 373.481 3421.14 382.156 3424.74C390.831 3428.33 398.713 3433.6 405.353 3440.24L354.794 3490.79L304.235 3440.24Z" fill="#E1F7FA"/>
<circle cx="228.396" cy="3718.31" r="35.7505" transform="rotate(-135 228.396 3718.31)" fill="#FBDBDF"/>
<path d="M304.235 3642.47C297.596 3649.11 289.714 3654.38 281.039 3657.97C272.364 3661.56 263.066 3663.41 253.676 3663.41C244.287 3663.41 234.989 3661.56 226.314 3657.97C217.639 3654.38 209.757 3649.11 203.117 3642.47L253.676 3591.91L304.235 3642.47Z" fill="#E1F7FA"/>
<path d="M405.353 3541.35C398.714 3547.99 390.832 3553.26 382.157 3556.85C373.482 3560.45 364.184 3562.3 354.794 3562.3C345.405 3562.3 336.107 3560.45 327.432 3556.85C318.757 3553.26 310.875 3547.99 304.235 3541.35L354.794 3490.79L405.353 3541.35Z" fill="#E1F7FA"/>
<path d="M304.235 3743.59C297.596 3736.95 292.329 3729.07 288.736 3720.39C285.143 3711.72 283.293 3702.42 283.293 3693.03C283.293 3683.64 285.143 3674.34 288.736 3665.67C292.329 3656.99 297.596 3649.11 304.235 3642.47L354.794 3693.03L304.235 3743.59Z" fill="#E1F7FA"/>
<path d="M405.353 3642.47C398.713 3635.83 393.447 3627.95 389.853 3619.27C386.26 3610.6 384.411 3601.3 384.411 3591.91C384.411 3582.52 386.26 3573.23 389.853 3564.55C393.447 3555.88 398.713 3547.99 405.353 3541.35L455.912 3591.91L405.353 3642.47Z" fill="#E1F7FA"/>
<path d="M455.912 3490.79C449.272 3497.43 441.39 3502.7 432.715 3506.29C424.04 3509.89 414.743 3511.74 405.353 3511.74C395.963 3511.74 386.666 3509.89 377.991 3506.29C369.316 3502.7 361.434 3497.43 354.794 3490.79L405.353 3440.24L455.912 3490.79Z" fill="#E1F7FA"/>
<path d="M354.794 3693.03C361.434 3686.39 366.701 3678.51 370.294 3669.83C373.887 3661.16 375.737 3651.86 375.737 3642.47C375.737 3633.08 373.887 3623.78 370.294 3615.11C366.701 3606.43 361.434 3598.55 354.794 3591.91C348.155 3585.27 340.273 3580.01 331.598 3576.41C322.923 3572.82 313.625 3570.97 304.235 3570.97C294.846 3570.97 285.548 3572.82 276.873 3576.41C268.198 3580.01 260.316 3585.27 253.677 3591.91L304.235 3642.47L354.794 3693.03Z" fill="#E1F7FA"/>
</g>
<g opacity="0.4">
<path d="M253.676 4385.79C260.316 4379.16 268.198 4373.89 276.873 4370.3C285.548 4366.7 294.846 4364.85 304.235 4364.85C313.625 4364.85 322.923 4366.7 331.597 4370.3C340.272 4373.89 348.155 4379.16 354.794 4385.79L304.235 4436.35L253.676 4385.79Z" fill="#E1F7FA"/>
<path d="M354.794 4284.68C361.434 4278.04 369.316 4272.77 377.991 4269.18C386.666 4265.58 395.964 4263.73 405.353 4263.73C414.743 4263.73 424.041 4265.58 432.715 4269.18C441.39 4272.77 449.273 4278.04 455.912 4284.68L405.353 4335.24L354.794 4284.68Z" fill="#E1F7FA"/>
<path d="M304.235 4335.24C310.874 4328.6 318.757 4323.33 327.432 4319.74C336.107 4316.14 345.404 4314.29 354.794 4314.29C364.184 4314.29 373.481 4316.14 382.156 4319.74C390.831 4323.33 398.713 4328.6 405.353 4335.24L354.794 4385.79L304.235 4335.24Z" fill="#E1F7FA"/>
<circle cx="228.396" cy="4613.31" r="35.7505" transform="rotate(-135 228.396 4613.31)" fill="#FBDBDF"/>
<path d="M304.235 4537.47C297.596 4544.11 289.714 4549.38 281.039 4552.97C272.364 4556.56 263.066 4558.41 253.676 4558.41C244.287 4558.41 234.989 4556.56 226.314 4552.97C217.639 4549.38 209.757 4544.11 203.117 4537.47L253.676 4486.91L304.235 4537.47Z" fill="#E1F7FA"/>
<path d="M405.353 4436.35C398.714 4442.99 390.832 4448.26 382.157 4451.85C373.482 4455.45 364.184 4457.3 354.794 4457.3C345.405 4457.3 336.107 4455.45 327.432 4451.85C318.757 4448.26 310.875 4442.99 304.235 4436.35L354.794 4385.79L405.353 4436.35Z" fill="#E1F7FA"/>
<path d="M304.235 4638.59C297.596 4631.95 292.329 4624.07 288.736 4615.39C285.143 4606.72 283.293 4597.42 283.293 4588.03C283.293 4578.64 285.143 4569.34 288.736 4560.67C292.329 4551.99 297.596 4544.11 304.235 4537.47L354.794 4588.03L304.235 4638.59Z" fill="#E1F7FA"/>
<path d="M405.353 4537.47C398.713 4530.83 393.447 4522.95 389.853 4514.27C386.26 4505.6 384.411 4496.3 384.411 4486.91C384.411 4477.52 386.26 4468.23 389.853 4459.55C393.447 4450.88 398.713 4442.99 405.353 4436.35L455.912 4486.91L405.353 4537.47Z" fill="#E1F7FA"/>
<path d="M455.912 4385.79C449.272 4392.43 441.39 4397.7 432.715 4401.29C424.04 4404.89 414.743 4406.74 405.353 4406.74C395.963 4406.74 386.666 4404.89 377.991 4401.29C369.316 4397.7 361.434 4392.43 354.794 4385.79L405.353 4335.24L455.912 4385.79Z" fill="#E1F7FA"/>
<path d="M354.794 4588.03C361.434 4581.39 366.701 4573.51 370.294 4564.83C373.887 4556.16 375.737 4546.86 375.737 4537.47C375.737 4528.08 373.887 4518.78 370.294 4510.11C366.701 4501.43 361.434 4493.55 354.794 4486.91C348.155 4480.27 340.273 4475.01 331.598 4471.41C322.923 4467.82 313.625 4465.97 304.235 4465.97C294.846 4465.97 285.548 4467.82 276.873 4471.41C268.198 4475.01 260.316 4480.27 253.677 4486.91L304.235 4537.47L354.794 4588.03Z" fill="#E1F7FA"/>
</g>
<g opacity="0.4">
<path d="M253.676 5284.79C260.316 5278.16 268.198 5272.89 276.873 5269.3C285.548 5265.7 294.846 5263.85 304.235 5263.85C313.625 5263.85 322.923 5265.7 331.597 5269.3C340.272 5272.89 348.155 5278.16 354.794 5284.79L304.235 5335.35L253.676 5284.79Z" fill="#E1F7FA"/>
<path d="M354.794 5183.68C361.434 5177.04 369.316 5171.77 377.991 5168.18C386.666 5164.58 395.964 5162.73 405.353 5162.73C414.743 5162.73 424.041 5164.58 432.715 5168.18C441.39 5171.77 449.273 5177.04 455.912 5183.68L405.353 5234.24L354.794 5183.68Z" fill="#E1F7FA"/>
<path d="M304.235 5234.24C310.874 5227.6 318.757 5222.33 327.432 5218.74C336.107 5215.14 345.404 5213.29 354.794 5213.29C364.184 5213.29 373.481 5215.14 382.156 5218.74C390.831 5222.33 398.713 5227.6 405.353 5234.24L354.794 5284.79L304.235 5234.24Z" fill="#E1F7FA"/>
<circle cx="228.396" cy="5512.31" r="35.7505" transform="rotate(-135 228.396 5512.31)" fill="#FBDBDF"/>
<path d="M304.235 5436.47C297.596 5443.11 289.714 5448.38 281.039 5451.97C272.364 5455.56 263.066 5457.41 253.676 5457.41C244.287 5457.41 234.989 5455.56 226.314 5451.97C217.639 5448.38 209.757 5443.11 203.117 5436.47L253.676 5385.91L304.235 5436.47Z" fill="#E1F7FA"/>
<path d="M405.353 5335.35C398.714 5341.99 390.832 5347.26 382.157 5350.85C373.482 5354.45 364.184 5356.3 354.794 5356.3C345.405 5356.3 336.107 5354.45 327.432 5350.85C318.757 5347.26 310.875 5341.99 304.235 5335.35L354.794 5284.79L405.353 5335.35Z" fill="#E1F7FA"/>
<path d="M304.235 5537.59C297.596 5530.95 292.329 5523.07 288.736 5514.39C285.143 5505.72 283.293 5496.42 283.293 5487.03C283.293 5477.64 285.143 5468.34 288.736 5459.67C292.329 5450.99 297.596 5443.11 304.235 5436.47L354.794 5487.03L304.235 5537.59Z" fill="#E1F7FA"/>
<path d="M405.353 5436.47C398.713 5429.83 393.447 5421.95 389.853 5413.27C386.26 5404.6 384.411 5395.3 384.411 5385.91C384.411 5376.52 386.26 5367.23 389.853 5358.55C393.447 5349.88 398.713 5341.99 405.353 5335.35L455.912 5385.91L405.353 5436.47Z" fill="#E1F7FA"/>
<path d="M455.912 5284.79C449.272 5291.43 441.39 5296.7 432.715 5300.29C424.04 5303.89 414.743 5305.74 405.353 5305.74C395.963 5305.74 386.666 5303.89 377.991 5300.29C369.316 5296.7 361.434 5291.43 354.794 5284.79L405.353 5234.24L455.912 5284.79Z" fill="#E1F7FA"/>
<path d="M354.794 5487.03C361.434 5480.39 366.701 5472.51 370.294 5463.83C373.887 5455.16 375.737 5445.86 375.737 5436.47C375.737 5427.08 373.887 5417.78 370.294 5409.11C366.701 5400.43 361.434 5392.55 354.794 5385.91C348.155 5379.27 340.273 5374.01 331.598 5370.41C322.923 5366.82 313.625 5364.97 304.235 5364.97C294.846 5364.97 285.548 5366.82 276.873 5370.41C268.198 5374.01 260.316 5379.27 253.677 5385.91L304.235 5436.47L354.794 5487.03Z" fill="#E1F7FA"/>
</g>
<g opacity="0.4">
<path d="M253.676 6177.79C260.316 6171.16 268.198 6165.89 276.873 6162.3C285.548 6158.7 294.846 6156.85 304.235 6156.85C313.625 6156.85 322.923 6158.7 331.597 6162.3C340.272 6165.89 348.155 6171.16 354.794 6177.79L304.235 6228.35L253.676 6177.79Z" fill="#E1F7FA"/>
<path d="M354.794 6076.68C361.434 6070.04 369.316 6064.77 377.991 6061.18C386.666 6057.58 395.964 6055.73 405.353 6055.73C414.743 6055.73 424.041 6057.58 432.715 6061.18C441.39 6064.77 449.273 6070.04 455.912 6076.68L405.353 6127.24L354.794 6076.68Z" fill="#E1F7FA"/>
<path d="M304.235 6127.24C310.874 6120.6 318.757 6115.33 327.432 6111.74C336.107 6108.14 345.404 6106.29 354.794 6106.29C364.184 6106.29 373.481 6108.14 382.156 6111.74C390.831 6115.33 398.713 6120.6 405.353 6127.24L354.794 6177.79L304.235 6127.24Z" fill="#E1F7FA"/>
<circle cx="228.396" cy="6405.31" r="35.7505" transform="rotate(-135 228.396 6405.31)" fill="#FBDBDF"/>
<path d="M304.235 6329.47C297.596 6336.11 289.714 6341.38 281.039 6344.97C272.364 6348.56 263.066 6350.41 253.676 6350.41C244.287 6350.41 234.989 6348.56 226.314 6344.97C217.639 6341.38 209.757 6336.11 203.117 6329.47L253.676 6278.91L304.235 6329.47Z" fill="#E1F7FA"/>
<path d="M405.353 6228.35C398.714 6234.99 390.832 6240.26 382.157 6243.85C373.482 6247.45 364.184 6249.3 354.794 6249.3C345.405 6249.3 336.107 6247.45 327.432 6243.85C318.757 6240.26 310.875 6234.99 304.235 6228.35L354.794 6177.79L405.353 6228.35Z" fill="#E1F7FA"/>
<path d="M304.235 6430.59C297.596 6423.95 292.329 6416.07 288.736 6407.39C285.143 6398.72 283.293 6389.42 283.293 6380.03C283.293 6370.64 285.143 6361.34 288.736 6352.67C292.329 6343.99 297.596 6336.11 304.235 6329.47L354.794 6380.03L304.235 6430.59Z" fill="#E1F7FA"/>
<path d="M405.353 6329.47C398.713 6322.83 393.447 6314.95 389.853 6306.27C386.26 6297.6 384.411 6288.3 384.411 6278.91C384.411 6269.52 386.26 6260.23 389.853 6251.55C393.447 6242.88 398.713 6234.99 405.353 6228.35L455.912 6278.91L405.353 6329.47Z" fill="#E1F7FA"/>
<path d="M455.912 6177.79C449.272 6184.43 441.39 6189.7 432.715 6193.29C424.04 6196.89 414.743 6198.74 405.353 6198.74C395.963 6198.74 386.666 6196.89 377.991 6193.29C369.316 6189.7 361.434 6184.43 354.794 6177.79L405.353 6127.24L455.912 6177.79Z" fill="#E1F7FA"/>
<path d="M354.794 6380.03C361.434 6373.39 366.701 6365.51 370.294 6356.83C373.887 6348.16 375.737 6338.86 375.737 6329.47C375.737 6320.08 373.887 6310.78 370.294 6302.11C366.701 6293.43 361.434 6285.55 354.794 6278.91C348.155 6272.27 340.273 6267.01 331.598 6263.41C322.923 6259.82 313.625 6257.97 304.235 6257.97C294.846 6257.97 285.548 6259.82 276.873 6263.41C268.198 6267.01 260.316 6272.27 253.677 6278.91L304.235 6329.47L354.794 6380.03Z" fill="#E1F7FA"/>
</g>
<g opacity="0.4">
<path d="M253.676 7082.79C260.316 7076.16 268.198 7070.89 276.873 7067.3C285.548 7063.7 294.846 7061.85 304.235 7061.85C313.625 7061.85 322.923 7063.7 331.597 7067.3C340.272 7070.89 348.155 7076.16 354.794 7082.79L304.235 7133.35L253.676 7082.79Z" fill="#E1F7FA"/>
<path d="M354.794 6981.68C361.434 6975.04 369.316 6969.77 377.991 6966.18C386.666 6962.58 395.964 6960.73 405.353 6960.73C414.743 6960.73 424.041 6962.58 432.715 6966.18C441.39 6969.77 449.273 6975.04 455.912 6981.68L405.353 7032.24L354.794 6981.68Z" fill="#E1F7FA"/>
<path d="M304.235 7032.24C310.874 7025.6 318.757 7020.33 327.432 7016.74C336.107 7013.14 345.404 7011.29 354.794 7011.29C364.184 7011.29 373.481 7013.14 382.156 7016.74C390.831 7020.33 398.713 7025.6 405.353 7032.24L354.794 7082.79L304.235 7032.24Z" fill="#E1F7FA"/>
<circle cx="228.396" cy="7310.31" r="35.7505" transform="rotate(-135 228.396 7310.31)" fill="#FBDBDF"/>
<path d="M304.235 7234.47C297.596 7241.11 289.714 7246.38 281.039 7249.97C272.364 7253.56 263.066 7255.41 253.676 7255.41C244.287 7255.41 234.989 7253.56 226.314 7249.97C217.639 7246.38 209.757 7241.11 203.117 7234.47L253.676 7183.91L304.235 7234.47Z" fill="#E1F7FA"/>
<path d="M405.353 7133.35C398.714 7139.99 390.832 7145.26 382.157 7148.85C373.482 7152.45 364.184 7154.3 354.794 7154.3C345.405 7154.3 336.107 7152.45 327.432 7148.85C318.757 7145.26 310.875 7139.99 304.235 7133.35L354.794 7082.79L405.353 7133.35Z" fill="#E1F7FA"/>
<path d="M304.235 7335.59C297.596 7328.95 292.329 7321.07 288.736 7312.39C285.143 7303.72 283.293 7294.42 283.293 7285.03C283.293 7275.64 285.143 7266.34 288.736 7257.67C292.329 7248.99 297.596 7241.11 304.235 7234.47L354.794 7285.03L304.235 7335.59Z" fill="#E1F7FA"/>
<path d="M405.353 7234.47C398.713 7227.83 393.447 7219.95 389.853 7211.27C386.26 7202.6 384.411 7193.3 384.411 7183.91C384.411 7174.52 386.26 7165.23 389.853 7156.55C393.447 7147.88 398.713 7139.99 405.353 7133.35L455.912 7183.91L405.353 7234.47Z" fill="#E1F7FA"/>
<path d="M455.912 7082.79C449.272 7089.43 441.39 7094.7 432.715 7098.29C424.04 7101.89 414.743 7103.74 405.353 7103.74C395.963 7103.74 386.666 7101.89 377.991 7098.29C369.316 7094.7 361.434 7089.43 354.794 7082.79L405.353 7032.24L455.912 7082.79Z" fill="#E1F7FA"/>
<path d="M354.794 7285.03C361.434 7278.39 366.701 7270.51 370.294 7261.83C373.887 7253.16 375.737 7243.86 375.737 7234.47C375.737 7225.08 373.887 7215.78 370.294 7207.11C366.701 7198.43 361.434 7190.55 354.794 7183.91C348.155 7177.27 340.273 7172.01 331.598 7168.41C322.923 7164.82 313.625 7162.97 304.235 7162.97C294.846 7162.97 285.548 7164.82 276.873 7168.41C268.198 7172.01 260.316 7177.27 253.677 7183.91L304.235 7234.47L354.794 7285.03Z" fill="#E1F7FA"/>
</g>
<g opacity="0.4">
<path d="M273.912 3061.79C280.552 3055.15 288.434 3049.89 297.109 3046.29C305.784 3042.7 315.082 3040.85 324.471 3040.85C333.861 3040.85 343.159 3042.7 351.834 3046.29C360.508 3049.89 368.391 3055.15 375.03 3061.79L324.471 3112.35L273.912 3061.79Z" fill="#E1F7FA"/>
<path d="M223.353 3011.24C229.993 3004.6 237.875 2999.33 246.55 2995.74C255.225 2992.14 264.523 2990.29 273.912 2990.29C283.302 2990.29 292.6 2992.14 301.275 2995.74C309.949 2999.33 317.832 3004.6 324.471 3011.24L273.912 3061.79L223.353 3011.24Z" fill="#E1F7FA"/>
<path d="M172.795 2960.68C179.434 2954.04 187.316 2948.77 195.991 2945.18C204.666 2941.58 213.964 2939.73 223.353 2939.73C232.743 2939.73 242.041 2941.58 250.716 2945.18C259.391 2948.77 267.273 2954.04 273.912 2960.68L223.353 3011.24L172.795 2960.68Z" fill="#E1F7FA"/>
<path d="M172.795 3264.03C166.155 3257.39 160.889 3249.51 157.295 3240.83C153.702 3232.16 151.853 3222.86 151.853 3213.47C151.853 3204.08 153.702 3194.78 157.295 3186.11C160.889 3177.43 166.155 3169.55 172.795 3162.91L223.354 3213.47L172.795 3264.03Z" fill="#E1F7FA"/>
<path d="M71.6767 3162.91C65.0373 3156.27 59.7705 3148.39 56.1773 3139.72C52.584 3131.04 50.7346 3121.74 50.7346 3112.35C50.7346 3102.96 52.584 3093.67 56.1773 3084.99C59.7705 3076.32 65.0373 3068.43 71.6768 3061.79L122.236 3112.35L71.6767 3162.91Z" fill="#E1F7FA"/>
<path d="M122.236 3213.47C115.596 3206.83 110.329 3198.95 106.736 3190.27C103.143 3181.6 101.294 3172.3 101.294 3162.91C101.294 3153.52 103.143 3144.23 106.736 3135.55C110.329 3126.88 115.596 3118.99 122.236 3112.35L172.795 3162.91L122.236 3213.47Z" fill="#E1F7FA"/>
<circle cx="400.309" cy="3289.31" r="35.7505" transform="rotate(135 400.309 3289.31)" fill="#FBDBDF"/>
<path d="M324.471 3213.47C331.111 3220.11 336.378 3227.99 339.971 3236.67C343.564 3245.34 345.414 3254.64 345.414 3264.03C345.414 3273.42 343.564 3282.72 339.971 3291.39C336.378 3300.07 331.111 3307.95 324.471 3314.59L273.913 3264.03L324.471 3213.47Z" fill="#E1F7FA"/>
<path d="M223.354 3112.35C229.993 3118.99 235.26 3126.88 238.853 3135.55C242.446 3144.22 244.296 3153.52 244.296 3162.91C244.296 3172.3 242.446 3181.6 238.853 3190.27C235.26 3198.95 229.993 3206.83 223.354 3213.47L172.795 3162.91L223.354 3112.35Z" fill="#E1F7FA"/>
<path d="M425.589 3213.47C418.95 3220.11 411.067 3225.38 402.392 3228.97C393.717 3232.56 384.42 3234.41 375.03 3234.41C365.64 3234.41 356.343 3232.56 347.668 3228.97C338.993 3225.38 331.111 3220.11 324.471 3213.47L375.03 3162.91L425.589 3213.47Z" fill="#E1F7FA"/>
<path d="M122.236 3011.24C128.875 3017.88 134.142 3025.76 137.735 3034.43C141.328 3043.11 143.178 3052.41 143.178 3061.79C143.178 3071.18 141.328 3080.48 137.735 3089.16C134.142 3097.83 128.875 3105.71 122.236 3112.35L71.6768 3061.79L122.236 3011.24Z" fill="#E1F7FA"/>
<path d="M324.471 3112.35C317.832 3118.99 309.95 3124.26 301.275 3127.85C292.6 3131.45 283.302 3133.3 273.912 3133.3C264.523 3133.3 255.225 3131.45 246.55 3127.85C237.875 3124.26 229.993 3118.99 223.354 3112.35L273.912 3061.79L324.471 3112.35Z" fill="#E1F7FA"/>
<path d="M223.353 3011.24C216.714 3017.88 208.832 3023.14 200.157 3026.74C191.482 3030.33 182.184 3032.18 172.795 3032.18C163.405 3032.18 154.107 3030.33 145.432 3026.74C136.757 3023.14 128.875 3017.88 122.236 3011.24L172.795 2960.68L223.353 3011.24Z" fill="#E1F7FA"/>
<path d="M172.795 3061.79C179.434 3068.43 184.701 3076.32 188.294 3084.99C191.887 3093.67 193.737 3102.96 193.737 3112.35C193.737 3121.74 191.887 3131.04 188.294 3139.72C184.701 3148.39 179.434 3156.27 172.795 3162.91L122.236 3112.35L172.795 3061.79Z" fill="#E1F7FA"/>
<path d="M273.912 3061.79C267.273 3068.43 259.391 3073.7 250.716 3077.29C242.041 3080.89 232.743 3082.74 223.354 3082.74C213.964 3082.74 204.666 3080.89 195.991 3077.29C187.316 3073.7 179.434 3068.43 172.795 3061.79L223.354 3011.24L273.912 3061.79Z" fill="#E1F7FA"/>
<path d="M375.03 3162.91C368.391 3156.27 360.509 3151.01 351.834 3147.41C343.159 3143.82 333.861 3141.97 324.471 3141.97C315.082 3141.97 305.784 3143.82 297.109 3147.41C288.434 3151.01 280.552 3156.27 273.913 3162.91C267.273 3169.55 262.006 3177.43 258.413 3186.11C254.82 3194.78 252.97 3204.08 252.97 3213.47C252.97 3222.86 254.82 3232.16 258.413 3240.83C262.006 3249.51 267.273 3257.39 273.913 3264.03L324.471 3213.47L375.03 3162.91Z" fill="#E1F7FA"/>
<circle cx="71.6643" cy="2960.69" r="71.5011" transform="rotate(-45 71.6643 2960.69)" fill="#FBDBDF"/>
</g>
<g opacity="0.4">
<path d="M273.912 3956.79C280.552 3950.15 288.434 3944.89 297.109 3941.29C305.784 3937.7 315.082 3935.85 324.471 3935.85C333.861 3935.85 343.159 3937.7 351.834 3941.29C360.508 3944.89 368.391 3950.15 375.03 3956.79L324.471 4007.35L273.912 3956.79Z" fill="#E1F7FA"/>
<path d="M223.353 3906.24C229.993 3899.6 237.875 3894.33 246.55 3890.74C255.225 3887.14 264.523 3885.29 273.912 3885.29C283.302 3885.29 292.6 3887.14 301.275 3890.74C309.949 3894.33 317.832 3899.6 324.471 3906.24L273.912 3956.79L223.353 3906.24Z" fill="#E1F7FA"/>
<path d="M172.795 3855.68C179.434 3849.04 187.316 3843.77 195.991 3840.18C204.666 3836.58 213.964 3834.73 223.353 3834.73C232.743 3834.73 242.041 3836.58 250.716 3840.18C259.391 3843.77 267.273 3849.04 273.912 3855.68L223.353 3906.24L172.795 3855.68Z" fill="#E1F7FA"/>
<path d="M172.795 4159.03C166.155 4152.39 160.889 4144.51 157.295 4135.83C153.702 4127.16 151.853 4117.86 151.853 4108.47C151.853 4099.08 153.702 4089.78 157.295 4081.11C160.889 4072.43 166.155 4064.55 172.795 4057.91L223.354 4108.47L172.795 4159.03Z" fill="#E1F7FA"/>
<path d="M71.6767 4057.91C65.0373 4051.27 59.7705 4043.39 56.1773 4034.72C52.584 4026.04 50.7346 4016.74 50.7346 4007.35C50.7346 3997.96 52.584 3988.67 56.1773 3979.99C59.7705 3971.32 65.0373 3963.43 71.6768 3956.79L122.236 4007.35L71.6767 4057.91Z" fill="#E1F7FA"/>
<path d="M122.236 4108.47C115.596 4101.83 110.329 4093.95 106.736 4085.27C103.143 4076.6 101.294 4067.3 101.294 4057.91C101.294 4048.52 103.143 4039.23 106.736 4030.55C110.329 4021.88 115.596 4013.99 122.236 4007.35L172.795 4057.91L122.236 4108.47Z" fill="#E1F7FA"/>
<circle cx="400.309" cy="4184.31" r="35.7505" transform="rotate(135 400.309 4184.31)" fill="#FBDBDF"/>
<path d="M324.471 4108.47C331.111 4115.11 336.378 4122.99 339.971 4131.67C343.564 4140.34 345.414 4149.64 345.414 4159.03C345.414 4168.42 343.564 4177.72 339.971 4186.39C336.378 4195.07 331.111 4202.95 324.471 4209.59L273.913 4159.03L324.471 4108.47Z" fill="#E1F7FA"/>
<path d="M223.354 4007.35C229.993 4013.99 235.26 4021.88 238.853 4030.55C242.446 4039.22 244.296 4048.52 244.296 4057.91C244.296 4067.3 242.446 4076.6 238.853 4085.27C235.26 4093.95 229.993 4101.83 223.354 4108.47L172.795 4057.91L223.354 4007.35Z" fill="#E1F7FA"/>
<path d="M425.589 4108.47C418.95 4115.11 411.067 4120.38 402.392 4123.97C393.717 4127.56 384.42 4129.41 375.03 4129.41C365.64 4129.41 356.343 4127.56 347.668 4123.97C338.993 4120.38 331.111 4115.11 324.471 4108.47L375.03 4057.91L425.589 4108.47Z" fill="#E1F7FA"/>
<path d="M122.236 3906.24C128.875 3912.88 134.142 3920.76 137.735 3929.43C141.328 3938.11 143.178 3947.41 143.178 3956.79C143.178 3966.18 141.328 3975.48 137.735 3984.16C134.142 3992.83 128.875 4000.71 122.236 4007.35L71.6768 3956.79L122.236 3906.24Z" fill="#E1F7FA"/>
<path d="M324.471 4007.35C317.832 4013.99 309.95 4019.26 301.275 4022.85C292.6 4026.45 283.302 4028.3 273.912 4028.3C264.523 4028.3 255.225 4026.45 246.55 4022.85C237.875 4019.26 229.993 4013.99 223.354 4007.35L273.912 3956.79L324.471 4007.35Z" fill="#E1F7FA"/>
<path d="M223.353 3906.24C216.714 3912.88 208.832 3918.14 200.157 3921.74C191.482 3925.33 182.184 3927.18 172.795 3927.18C163.405 3927.18 154.107 3925.33 145.432 3921.74C136.757 3918.14 128.875 3912.88 122.236 3906.24L172.795 3855.68L223.353 3906.24Z" fill="#E1F7FA"/>
<path d="M172.795 3956.79C179.434 3963.43 184.701 3971.32 188.294 3979.99C191.887 3988.67 193.737 3997.96 193.737 4007.35C193.737 4016.74 191.887 4026.04 188.294 4034.72C184.701 4043.39 179.434 4051.27 172.795 4057.91L122.236 4007.35L172.795 3956.79Z" fill="#E1F7FA"/>
<path d="M273.912 3956.79C267.273 3963.43 259.391 3968.7 250.716 3972.29C242.041 3975.89 232.743 3977.74 223.354 3977.74C213.964 3977.74 204.666 3975.89 195.991 3972.29C187.316 3968.7 179.434 3963.43 172.795 3956.79L223.354 3906.24L273.912 3956.79Z" fill="#E1F7FA"/>
<path d="M375.03 4057.91C368.391 4051.27 360.509 4046.01 351.834 4042.41C343.159 4038.82 333.861 4036.97 324.471 4036.97C315.082 4036.97 305.784 4038.82 297.109 4042.41C288.434 4046.01 280.552 4051.27 273.913 4057.91C267.273 4064.55 262.006 4072.43 258.413 4081.11C254.82 4089.78 252.97 4099.08 252.97 4108.47C252.97 4117.86 254.82 4127.16 258.413 4135.83C262.006 4144.51 267.273 4152.39 273.913 4159.03L324.471 4108.47L375.03 4057.91Z" fill="#E1F7FA"/>
<circle cx="71.6643" cy="3855.69" r="71.5011" transform="rotate(-45 71.6643 3855.69)" fill="#FBDBDF"/>
</g>
<g opacity="0.4">
<path d="M273.912 4855.79C280.552 4849.15 288.434 4843.89 297.109 4840.29C305.784 4836.7 315.082 4834.85 324.471 4834.85C333.861 4834.85 343.159 4836.7 351.834 4840.29C360.508 4843.89 368.391 4849.15 375.03 4855.79L324.471 4906.35L273.912 4855.79Z" fill="#E1F7FA"/>
<path d="M223.353 4805.24C229.993 4798.6 237.875 4793.33 246.55 4789.74C255.225 4786.14 264.523 4784.29 273.912 4784.29C283.302 4784.29 292.6 4786.14 301.275 4789.74C309.949 4793.33 317.832 4798.6 324.471 4805.24L273.912 4855.79L223.353 4805.24Z" fill="#E1F7FA"/>
<path d="M172.795 4754.68C179.434 4748.04 187.316 4742.77 195.991 4739.18C204.666 4735.58 213.964 4733.73 223.353 4733.73C232.743 4733.73 242.041 4735.58 250.716 4739.18C259.391 4742.77 267.273 4748.04 273.912 4754.68L223.353 4805.24L172.795 4754.68Z" fill="#E1F7FA"/>
<path d="M172.795 5058.03C166.155 5051.39 160.889 5043.51 157.295 5034.83C153.702 5026.16 151.853 5016.86 151.853 5007.47C151.853 4998.08 153.702 4988.78 157.295 4980.11C160.889 4971.43 166.155 4963.55 172.795 4956.91L223.354 5007.47L172.795 5058.03Z" fill="#E1F7FA"/>
<path d="M71.6767 4956.91C65.0373 4950.27 59.7705 4942.39 56.1773 4933.72C52.584 4925.04 50.7346 4915.74 50.7346 4906.35C50.7346 4896.96 52.584 4887.67 56.1773 4878.99C59.7705 4870.32 65.0373 4862.43 71.6768 4855.79L122.236 4906.35L71.6767 4956.91Z" fill="#E1F7FA"/>
<path d="M122.236 5007.47C115.596 5000.83 110.329 4992.95 106.736 4984.27C103.143 4975.6 101.294 4966.3 101.294 4956.91C101.294 4947.52 103.143 4938.23 106.736 4929.55C110.329 4920.88 115.596 4912.99 122.236 4906.35L172.795 4956.91L122.236 5007.47Z" fill="#E1F7FA"/>
<circle cx="400.309" cy="5083.31" r="35.7505" transform="rotate(135 400.309 5083.31)" fill="#FBDBDF"/>
<path d="M324.471 5007.47C331.111 5014.11 336.378 5021.99 339.971 5030.67C343.564 5039.34 345.414 5048.64 345.414 5058.03C345.414 5067.42 343.564 5076.72 339.971 5085.39C336.378 5094.07 331.111 5101.95 324.471 5108.59L273.913 5058.03L324.471 5007.47Z" fill="#E1F7FA"/>
<path d="M223.354 4906.35C229.993 4912.99 235.26 4920.87 238.853 4929.55C242.446 4938.22 244.296 4947.52 244.296 4956.91C244.296 4966.3 242.446 4975.6 238.853 4984.27C235.26 4992.95 229.993 5000.83 223.354 5007.47L172.795 4956.91L223.354 4906.35Z" fill="#E1F7FA"/>
<path d="M425.589 5007.47C418.95 5014.11 411.067 5019.38 402.392 5022.97C393.717 5026.56 384.42 5028.41 375.03 5028.41C365.64 5028.41 356.343 5026.56 347.668 5022.97C338.993 5019.38 331.111 5014.11 324.471 5007.47L375.03 4956.91L425.589 5007.47Z" fill="#E1F7FA"/>
<path d="M122.236 4805.24C128.875 4811.88 134.142 4819.76 137.735 4828.43C141.328 4837.11 143.178 4846.41 143.178 4855.79C143.178 4865.18 141.328 4874.48 137.735 4883.16C134.142 4891.83 128.875 4899.71 122.236 4906.35L71.6768 4855.79L122.236 4805.24Z" fill="#E1F7FA"/>
<path d="M324.471 4906.35C317.832 4912.99 309.95 4918.26 301.275 4921.85C292.6 4925.45 283.302 4927.3 273.912 4927.3C264.523 4927.3 255.225 4925.45 246.55 4921.85C237.875 4918.26 229.993 4912.99 223.354 4906.35L273.912 4855.79L324.471 4906.35Z" fill="#E1F7FA"/>
<path d="M223.353 4805.24C216.714 4811.88 208.832 4817.14 200.157 4820.74C191.482 4824.33 182.184 4826.18 172.795 4826.18C163.405 4826.18 154.107 4824.33 145.432 4820.74C136.757 4817.14 128.875 4811.88 122.236 4805.24L172.795 4754.68L223.353 4805.24Z" fill="#E1F7FA"/>
<path d="M172.795 4855.79C179.434 4862.43 184.701 4870.32 188.294 4878.99C191.887 4887.67 193.737 4896.96 193.737 4906.35C193.737 4915.74 191.887 4925.04 188.294 4933.72C184.701 4942.39 179.434 4950.27 172.795 4956.91L122.236 4906.35L172.795 4855.79Z" fill="#E1F7FA"/>
<path d="M273.912 4855.79C267.273 4862.43 259.391 4867.7 250.716 4871.29C242.041 4874.89 232.743 4876.74 223.354 4876.74C213.964 4876.74 204.666 4874.89 195.991 4871.29C187.316 4867.7 179.434 4862.43 172.795 4855.79L223.354 4805.24L273.912 4855.79Z" fill="#E1F7FA"/>
<path d="M375.03 4956.91C368.391 4950.27 360.509 4945.01 351.834 4941.41C343.159 4937.82 333.861 4935.97 324.471 4935.97C315.082 4935.97 305.784 4937.82 297.109 4941.41C288.434 4945.01 280.552 4950.27 273.913 4956.91C267.273 4963.55 262.006 4971.43 258.413 4980.11C254.82 4988.78 252.97 4998.08 252.97 5007.47C252.97 5016.86 254.82 5026.16 258.413 5034.83C262.006 5043.51 267.273 5051.39 273.913 5058.03L324.471 5007.47L375.03 4956.91Z" fill="#E1F7FA"/>
<circle cx="71.6643" cy="4754.69" r="71.5011" transform="rotate(-45 71.6643 4754.69)" fill="#FBDBDF"/>
</g>
<g opacity="0.4">
<path d="M273.912 5748.79C280.552 5742.15 288.434 5736.89 297.109 5733.29C305.784 5729.7 315.082 5727.85 324.471 5727.85C333.861 5727.85 343.159 5729.7 351.834 5733.29C360.508 5736.89 368.391 5742.15 375.03 5748.79L324.471 5799.35L273.912 5748.79Z" fill="#E1F7FA"/>
<path d="M223.353 5698.24C229.993 5691.6 237.875 5686.33 246.55 5682.74C255.225 5679.14 264.523 5677.29 273.912 5677.29C283.302 5677.29 292.6 5679.14 301.275 5682.74C309.949 5686.33 317.832 5691.6 324.471 5698.24L273.912 5748.79L223.353 5698.24Z" fill="#E1F7FA"/>
<path d="M172.795 5647.68C179.434 5641.04 187.316 5635.77 195.991 5632.18C204.666 5628.58 213.964 5626.73 223.353 5626.73C232.743 5626.73 242.041 5628.58 250.716 5632.18C259.391 5635.77 267.273 5641.04 273.912 5647.68L223.353 5698.24L172.795 5647.68Z" fill="#E1F7FA"/>
<path d="M172.795 5951.03C166.155 5944.39 160.889 5936.51 157.295 5927.83C153.702 5919.16 151.853 5909.86 151.853 5900.47C151.853 5891.08 153.702 5881.78 157.295 5873.11C160.889 5864.43 166.155 5856.55 172.795 5849.91L223.354 5900.47L172.795 5951.03Z" fill="#E1F7FA"/>
<path d="M71.6767 5849.91C65.0373 5843.27 59.7705 5835.39 56.1773 5826.72C52.584 5818.04 50.7346 5808.74 50.7346 5799.35C50.7346 5789.96 52.584 5780.67 56.1773 5771.99C59.7705 5763.32 65.0373 5755.43 71.6768 5748.79L122.236 5799.35L71.6767 5849.91Z" fill="#E1F7FA"/>
<path d="M122.236 5900.47C115.596 5893.83 110.329 5885.95 106.736 5877.27C103.143 5868.6 101.294 5859.3 101.294 5849.91C101.294 5840.52 103.143 5831.23 106.736 5822.55C110.329 5813.88 115.596 5805.99 122.236 5799.35L172.795 5849.91L122.236 5900.47Z" fill="#E1F7FA"/>
<circle cx="400.309" cy="5976.31" r="35.7505" transform="rotate(135 400.309 5976.31)" fill="#FBDBDF"/>
<path d="M324.471 5900.47C331.111 5907.11 336.378 5914.99 339.971 5923.67C343.564 5932.34 345.414 5941.64 345.414 5951.03C345.414 5960.42 343.564 5969.72 339.971 5978.39C336.378 5987.07 331.111 5994.95 324.471 6001.59L273.913 5951.03L324.471 5900.47Z" fill="#E1F7FA"/>
<path d="M223.354 5799.35C229.993 5805.99 235.26 5813.88 238.853 5822.55C242.446 5831.22 244.296 5840.52 244.296 5849.91C244.296 5859.3 242.446 5868.6 238.853 5877.27C235.26 5885.95 229.993 5893.83 223.354 5900.47L172.795 5849.91L223.354 5799.35Z" fill="#E1F7FA"/>
<path d="M425.589 5900.47C418.95 5907.11 411.067 5912.38 402.392 5915.97C393.717 5919.56 384.42 5921.41 375.03 5921.41C365.64 5921.41 356.343 5919.56 347.668 5915.97C338.993 5912.38 331.111 5907.11 324.471 5900.47L375.03 5849.91L425.589 5900.47Z" fill="#E1F7FA"/>
<path d="M122.236 5698.24C128.875 5704.88 134.142 5712.76 137.735 5721.43C141.328 5730.11 143.178 5739.41 143.178 5748.79C143.178 5758.18 141.328 5767.48 137.735 5776.16C134.142 5784.83 128.875 5792.71 122.236 5799.35L71.6768 5748.79L122.236 5698.24Z" fill="#E1F7FA"/>
<path d="M324.471 5799.35C317.832 5805.99 309.95 5811.26 301.275 5814.85C292.6 5818.45 283.302 5820.3 273.912 5820.3C264.523 5820.3 255.225 5818.45 246.55 5814.85C237.875 5811.26 229.993 5805.99 223.354 5799.35L273.912 5748.79L324.471 5799.35Z" fill="#E1F7FA"/>
<path d="M223.353 5698.24C216.714 5704.88 208.832 5710.14 200.157 5713.74C191.482 5717.33 182.184 5719.18 172.795 5719.18C163.405 5719.18 154.107 5717.33 145.432 5713.74C136.757 5710.14 128.875 5704.88 122.236 5698.24L172.795 5647.68L223.353 5698.24Z" fill="#E1F7FA"/>
<path d="M172.795 5748.79C179.434 5755.43 184.701 5763.32 188.294 5771.99C191.887 5780.67 193.737 5789.96 193.737 5799.35C193.737 5808.74 191.887 5818.04 188.294 5826.72C184.701 5835.39 179.434 5843.27 172.795 5849.91L122.236 5799.35L172.795 5748.79Z" fill="#E1F7FA"/>
<path d="M273.912 5748.79C267.273 5755.43 259.391 5760.7 250.716 5764.29C242.041 5767.89 232.743 5769.74 223.354 5769.74C213.964 5769.74 204.666 5767.89 195.991 5764.29C187.316 5760.7 179.434 5755.43 172.795 5748.79L223.354 5698.24L273.912 5748.79Z" fill="#E1F7FA"/>
<path d="M375.03 5849.91C368.391 5843.27 360.509 5838.01 351.834 5834.41C343.159 5830.82 333.861 5828.97 324.471 5828.97C315.082 5828.97 305.784 5830.82 297.109 5834.41C288.434 5838.01 280.552 5843.27 273.913 5849.91C267.273 5856.55 262.006 5864.43 258.413 5873.11C254.82 5881.78 252.97 5891.08 252.97 5900.47C252.97 5909.86 254.82 5919.16 258.413 5927.83C262.006 5936.51 267.273 5944.39 273.913 5951.03L324.471 5900.47L375.03 5849.91Z" fill="#E1F7FA"/>
<circle cx="71.6643" cy="5647.69" r="71.5011" transform="rotate(-45 71.6643 5647.69)" fill="#FBDBDF"/>
</g>
<g opacity="0.4">
<path d="M273.912 2173.79C280.552 2167.15 288.434 2161.89 297.109 2158.29C305.784 2154.7 315.082 2152.85 324.471 2152.85C333.861 2152.85 343.159 2154.7 351.834 2158.29C360.508 2161.89 368.391 2167.15 375.03 2173.79L324.471 2224.35L273.912 2173.79Z" fill="#E1F7FA"/>
<path d="M223.353 2123.24C229.993 2116.6 237.875 2111.33 246.55 2107.74C255.225 2104.14 264.523 2102.29 273.912 2102.29C283.302 2102.29 292.6 2104.14 301.275 2107.74C309.949 2111.33 317.832 2116.6 324.471 2123.24L273.912 2173.79L223.353 2123.24Z" fill="#E1F7FA"/>
<path d="M172.795 2072.68C179.434 2066.04 187.316 2060.77 195.991 2057.18C204.666 2053.58 213.964 2051.73 223.353 2051.73C232.743 2051.73 242.041 2053.58 250.716 2057.18C259.391 2060.77 267.273 2066.04 273.912 2072.68L223.353 2123.24L172.795 2072.68Z" fill="#E1F7FA"/>
<path d="M172.795 2376.03C166.155 2369.39 160.889 2361.51 157.295 2352.83C153.702 2344.16 151.853 2334.86 151.853 2325.47C151.853 2316.08 153.702 2306.78 157.295 2298.11C160.889 2289.43 166.155 2281.55 172.795 2274.91L223.354 2325.47L172.795 2376.03Z" fill="#E1F7FA"/>
<path d="M71.6767 2274.91C65.0373 2268.27 59.7705 2260.39 56.1773 2251.72C52.584 2243.04 50.7346 2233.74 50.7346 2224.35C50.7346 2214.96 52.584 2205.67 56.1773 2196.99C59.7705 2188.32 65.0373 2180.43 71.6768 2173.79L122.236 2224.35L71.6767 2274.91Z" fill="#E1F7FA"/>
<path d="M122.236 2325.47C115.596 2318.83 110.329 2310.95 106.736 2302.27C103.143 2293.6 101.294 2284.3 101.294 2274.91C101.294 2265.52 103.143 2256.23 106.736 2247.55C110.329 2238.88 115.596 2230.99 122.236 2224.35L172.795 2274.91L122.236 2325.47Z" fill="#E1F7FA"/>
<circle cx="400.309" cy="2401.31" r="35.7505" transform="rotate(135 400.309 2401.31)" fill="#FBDBDF"/>
<path d="M324.471 2325.47C331.111 2332.11 336.378 2339.99 339.971 2348.67C343.564 2357.34 345.414 2366.64 345.414 2376.03C345.414 2385.42 343.564 2394.72 339.971 2403.39C336.378 2412.07 331.111 2419.95 324.471 2426.59L273.913 2376.03L324.471 2325.47Z" fill="#E1F7FA"/>
<path d="M223.354 2224.35C229.993 2230.99 235.26 2238.87 238.853 2247.55C242.446 2256.22 244.296 2265.52 244.296 2274.91C244.296 2284.3 242.446 2293.6 238.853 2302.27C235.26 2310.95 229.993 2318.83 223.354 2325.47L172.795 2274.91L223.354 2224.35Z" fill="#E1F7FA"/>
<path d="M425.589 2325.47C418.95 2332.11 411.067 2337.38 402.392 2340.97C393.717 2344.56 384.42 2346.41 375.03 2346.41C365.64 2346.41 356.343 2344.56 347.668 2340.97C338.993 2337.38 331.111 2332.11 324.471 2325.47L375.03 2274.91L425.589 2325.47Z" fill="#E1F7FA"/>
<path d="M122.236 2123.24C128.875 2129.88 134.142 2137.76 137.735 2146.43C141.328 2155.11 143.178 2164.41 143.178 2173.79C143.178 2183.18 141.328 2192.48 137.735 2201.16C134.142 2209.83 128.875 2217.71 122.236 2224.35L71.6768 2173.79L122.236 2123.24Z" fill="#E1F7FA"/>
<path d="M324.471 2224.35C317.832 2230.99 309.95 2236.26 301.275 2239.85C292.6 2243.45 283.302 2245.3 273.912 2245.3C264.523 2245.3 255.225 2243.45 246.55 2239.85C237.875 2236.26 229.993 2230.99 223.354 2224.35L273.912 2173.79L324.471 2224.35Z" fill="#E1F7FA"/>
<path d="M223.353 2123.24C216.714 2129.88 208.832 2135.14 200.157 2138.74C191.482 2142.33 182.184 2144.18 172.795 2144.18C163.405 2144.18 154.107 2142.33 145.432 2138.74C136.757 2135.14 128.875 2129.88 122.236 2123.24L172.795 2072.68L223.353 2123.24Z" fill="#E1F7FA"/>
<path d="M172.795 2173.79C179.434 2180.43 184.701 2188.32 188.294 2196.99C191.887 2205.67 193.737 2214.96 193.737 2224.35C193.737 2233.74 191.887 2243.04 188.294 2251.72C184.701 2260.39 179.434 2268.27 172.795 2274.91L122.236 2224.35L172.795 2173.79Z" fill="#E1F7FA"/>
<path d="M273.912 2173.79C267.273 2180.43 259.391 2185.7 250.716 2189.29C242.041 2192.89 232.743 2194.74 223.354 2194.74C213.964 2194.74 204.666 2192.89 195.991 2189.29C187.316 2185.7 179.434 2180.43 172.795 2173.79L223.354 2123.24L273.912 2173.79Z" fill="#E1F7FA"/>
<path d="M375.03 2274.91C368.391 2268.27 360.509 2263.01 351.834 2259.41C343.159 2255.82 333.861 2253.97 324.471 2253.97C315.082 2253.97 305.784 2255.82 297.109 2259.41C288.434 2263.01 280.552 2268.27 273.913 2274.91C267.273 2281.55 262.006 2289.43 258.413 2298.11C254.82 2306.78 252.97 2316.08 252.97 2325.47C252.97 2334.86 254.82 2344.16 258.413 2352.83C262.006 2361.51 267.273 2369.39 273.913 2376.03L324.471 2325.47L375.03 2274.91Z" fill="#E1F7FA"/>
<circle cx="71.6643" cy="2072.69" r="71.5011" transform="rotate(-45 71.6643 2072.69)" fill="#FBDBDF"/>
</g>
<g opacity="0.4">
<path d="M273.912 7553.79C280.552 7547.16 288.434 7541.89 297.109 7538.3C305.784 7534.7 315.082 7532.85 324.471 7532.85C333.861 7532.85 343.159 7534.7 351.834 7538.3C360.508 7541.89 368.391 7547.16 375.03 7553.79L324.471 7604.35L273.912 7553.79Z" fill="#E1F7FA"/>
<path d="M223.353 7503.24C229.993 7496.6 237.875 7491.33 246.55 7487.74C255.225 7484.14 264.523 7482.29 273.912 7482.29C283.302 7482.29 292.6 7484.14 301.275 7487.74C309.949 7491.33 317.832 7496.6 324.471 7503.24L273.912 7553.8L223.353 7503.24Z" fill="#E1F7FA"/>
<path d="M172.795 7452.68C179.434 7446.04 187.316 7440.77 195.991 7437.18C204.666 7433.58 213.964 7431.74 223.353 7431.74C232.743 7431.74 242.041 7433.58 250.716 7437.18C259.391 7440.77 267.273 7446.04 273.912 7452.68L223.353 7503.24L172.795 7452.68Z" fill="#E1F7FA"/>
<path d="M71.6767 7654.91C65.0373 7648.27 59.7705 7640.39 56.1773 7631.72C52.584 7623.04 50.7346 7613.74 50.7346 7604.35C50.7346 7594.96 52.584 7585.67 56.1773 7576.99C59.7705 7568.32 65.0373 7560.43 71.6768 7553.79L122.236 7604.35L71.6767 7654.91Z" fill="#E1F7FA"/>
<path d="M122.236 7503.24C128.875 7509.88 134.142 7517.76 137.735 7526.43C141.328 7535.11 143.178 7544.41 143.178 7553.8C143.178 7563.19 141.328 7572.48 137.735 7581.16C134.142 7589.83 128.875 7597.71 122.236 7604.35L71.6768 7553.8L122.236 7503.24Z" fill="#E1F7FA"/>
<path d="M324.471 7604.35C317.832 7610.99 309.95 7616.26 301.275 7619.85C292.6 7623.45 283.302 7625.3 273.912 7625.3C264.523 7625.3 255.225 7623.45 246.55 7619.85C237.875 7616.26 229.993 7610.99 223.354 7604.35L273.912 7553.8L324.471 7604.35Z" fill="#E1F7FA"/>
<path d="M223.353 7503.24C216.714 7509.88 208.832 7515.14 200.157 7518.74C191.482 7522.33 182.184 7524.18 172.795 7524.18C163.405 7524.18 154.107 7522.33 145.432 7518.74C136.757 7515.14 128.875 7509.88 122.236 7503.24L172.795 7452.68L223.353 7503.24Z" fill="#E1F7FA"/>
<path d="M172.795 7553.8C179.434 7560.43 184.701 7568.32 188.294 7576.99C191.887 7585.67 193.737 7594.96 193.737 7604.35C193.737 7613.74 191.887 7623.04 188.294 7631.72C184.701 7640.39 179.434 7648.27 172.795 7654.91L122.236 7604.35L172.795 7553.8Z" fill="#E1F7FA"/>
<path d="M273.912 7553.79C267.273 7560.43 259.391 7565.7 250.716 7569.29C242.041 7572.89 232.743 7574.74 223.354 7574.74C213.964 7574.74 204.666 7572.89 195.991 7569.29C187.316 7565.7 179.434 7560.43 172.795 7553.79L223.354 7503.24L273.912 7553.79Z" fill="#E1F7FA"/>
<circle cx="71.6643" cy="7452.69" r="71.5011" transform="rotate(-45 71.6643 7452.69)" fill="#FBDBDF"/>
</g>
<g opacity="0.4">
<path d="M273.912 1328.79C280.552 1322.15 288.434 1316.89 297.109 1313.29C305.784 1309.7 315.082 1307.85 324.471 1307.85C333.861 1307.85 343.159 1309.7 351.834 1313.29C360.508 1316.89 368.391 1322.15 375.03 1328.79L324.471 1379.35L273.912 1328.79Z" fill="#E1F7FA"/>
<path d="M223.353 1278.24C229.993 1271.6 237.875 1266.33 246.55 1262.74C255.225 1259.14 264.523 1257.29 273.912 1257.29C283.302 1257.29 292.6 1259.14 301.275 1262.74C309.949 1266.33 317.832 1271.6 324.471 1278.24L273.912 1328.79L223.353 1278.24Z" fill="#E1F7FA"/>
<path d="M172.795 1227.68C179.434 1221.04 187.316 1215.77 195.991 1212.18C204.666 1208.58 213.964 1206.73 223.353 1206.73C232.743 1206.73 242.041 1208.58 250.716 1212.18C259.391 1215.77 267.273 1221.04 273.912 1227.68L223.353 1278.24L172.795 1227.68Z" fill="#E1F7FA"/>
<path d="M172.795 1531.03C166.155 1524.39 160.889 1516.51 157.295 1507.83C153.702 1499.16 151.853 1489.86 151.853 1480.47C151.853 1471.08 153.702 1461.78 157.295 1453.11C160.889 1444.43 166.155 1436.55 172.795 1429.91L223.354 1480.47L172.795 1531.03Z" fill="#E1F7FA"/>
<path d="M71.6767 1429.91C65.0373 1423.27 59.7705 1415.39 56.1773 1406.72C52.584 1398.04 50.7346 1388.74 50.7346 1379.35C50.7346 1369.96 52.584 1360.67 56.1773 1351.99C59.7705 1343.32 65.0373 1335.43 71.6768 1328.79L122.236 1379.35L71.6767 1429.91Z" fill="#E1F7FA"/>
<path d="M122.236 1480.47C115.596 1473.83 110.329 1465.95 106.736 1457.27C103.143 1448.6 101.294 1439.3 101.294 1429.91C101.294 1420.52 103.143 1411.23 106.736 1402.55C110.329 1393.88 115.596 1385.99 122.236 1379.35L172.795 1429.91L122.236 1480.47Z" fill="#E1F7FA"/>
<circle cx="400.309" cy="1556.31" r="35.7505" transform="rotate(135 400.309 1556.31)" fill="#FBDBDF"/>
<path d="M324.471 1480.47C331.111 1487.11 336.378 1494.99 339.971 1503.67C343.564 1512.34 345.414 1521.64 345.414 1531.03C345.414 1540.42 343.564 1549.72 339.971 1558.39C336.378 1567.07 331.111 1574.95 324.471 1581.59L273.913 1531.03L324.471 1480.47Z" fill="#E1F7FA"/>
<path d="M223.354 1379.35C229.993 1385.99 235.26 1393.88 238.853 1402.55C242.446 1411.22 244.296 1420.52 244.296 1429.91C244.296 1439.3 242.446 1448.6 238.853 1457.27C235.26 1465.95 229.993 1473.83 223.354 1480.47L172.795 1429.91L223.354 1379.35Z" fill="#E1F7FA"/>
<path d="M425.589 1480.47C418.95 1487.11 411.067 1492.38 402.392 1495.97C393.717 1499.56 384.42 1501.41 375.03 1501.41C365.64 1501.41 356.343 1499.56 347.668 1495.97C338.993 1492.38 331.111 1487.11 324.471 1480.47L375.03 1429.91L425.589 1480.47Z" fill="#E1F7FA"/>
<path d="M122.236 1278.24C128.875 1284.88 134.142 1292.76 137.735 1301.43C141.328 1310.11 143.178 1319.41 143.178 1328.79C143.178 1338.18 141.328 1347.48 137.735 1356.16C134.142 1364.83 128.875 1372.71 122.236 1379.35L71.6768 1328.79L122.236 1278.24Z" fill="#E1F7FA"/>
<path d="M324.471 1379.35C317.832 1385.99 309.95 1391.26 301.275 1394.85C292.6 1398.45 283.302 1400.3 273.912 1400.3C264.523 1400.3 255.225 1398.45 246.55 1394.85C237.875 1391.26 229.993 1385.99 223.354 1379.35L273.912 1328.79L324.471 1379.35Z" fill="#E1F7FA"/>
<path d="M223.353 1278.24C216.714 1284.88 208.832 1290.14 200.157 1293.74C191.482 1297.33 182.184 1299.18 172.795 1299.18C163.405 1299.18 154.107 1297.33 145.432 1293.74C136.757 1290.14 128.875 1284.88 122.236 1278.24L172.795 1227.68L223.353 1278.24Z" fill="#E1F7FA"/>
<path d="M172.795 1328.79C179.434 1335.43 184.701 1343.32 188.294 1351.99C191.887 1360.67 193.737 1369.96 193.737 1379.35C193.737 1388.74 191.887 1398.04 188.294 1406.72C184.701 1415.39 179.434 1423.27 172.795 1429.91L122.236 1379.35L172.795 1328.79Z" fill="#E1F7FA"/>
<path d="M273.912 1328.79C267.273 1335.43 259.391 1340.7 250.716 1344.29C242.041 1347.89 232.743 1349.74 223.354 1349.74C213.964 1349.74 204.666 1347.89 195.991 1344.29C187.316 1340.7 179.434 1335.43 172.795 1328.79L223.354 1278.24L273.912 1328.79Z" fill="#E1F7FA"/>
<path d="M375.03 1429.91C368.391 1423.27 360.509 1418.01 351.834 1414.41C343.159 1410.82 333.861 1408.97 324.471 1408.97C315.082 1408.97 305.784 1410.82 297.109 1414.41C288.434 1418.01 280.552 1423.27 273.913 1429.91C267.273 1436.55 262.006 1444.43 258.413 1453.11C254.82 1461.78 252.97 1471.08 252.97 1480.47C252.97 1489.86 254.82 1499.16 258.413 1507.83C262.006 1516.51 267.273 1524.39 273.913 1531.03L324.471 1480.47L375.03 1429.91Z" fill="#E1F7FA"/>
<circle cx="71.6643" cy="1227.69" r="71.5011" transform="rotate(-45 71.6643 1227.69)" fill="#FBDBDF"/>
</g>
</svg>
