<svg width="1510" height="1510" viewBox="0 0 1510 1510" fill="none" xmlns="http://www.w3.org/2000/svg">
<g opacity="0.4">
<path d="M784.949 494.964C803.99 475.923 826.595 460.819 851.473 450.514C876.351 440.21 903.015 434.906 929.942 434.906C956.87 434.906 983.534 440.21 1008.41 450.514C1033.29 460.819 1055.89 475.923 1074.94 494.964L929.942 639.957L784.949 494.964Z" fill="#E1F7FA"/>
<path d="M639.957 349.971C658.997 330.93 681.602 315.826 706.48 305.521C731.358 295.217 758.022 289.913 784.949 289.913C811.877 289.913 838.541 295.217 863.419 305.522C888.297 315.826 910.902 330.93 929.942 349.971L784.949 494.964L639.957 349.971Z" fill="#E1F7FA"/>
<path d="M494.964 204.978C514.004 185.937 536.609 170.834 561.487 160.529C586.365 150.224 613.029 144.92 639.957 144.92C666.884 144.92 693.548 150.224 718.426 160.529C743.304 170.834 765.909 185.938 784.949 204.978L639.957 349.971L494.964 204.978Z" fill="#E1F7FA"/>
<path d="M494.964 1074.94C475.923 1055.89 460.819 1033.29 450.515 1008.41C440.21 983.534 434.906 956.87 434.906 929.943C434.906 903.015 440.21 876.351 450.515 851.473C460.82 826.595 475.923 803.99 494.964 784.95L639.957 929.943L494.964 1074.94Z" fill="#E1F7FA"/>
<path d="M204.978 784.95C185.938 765.909 170.834 743.304 160.529 718.426C150.224 693.548 144.92 666.884 144.92 639.957C144.92 613.029 150.224 586.365 160.529 561.487C170.834 536.609 185.938 514.005 204.978 494.964L349.971 639.957L204.978 784.95Z" fill="#E1F7FA"/>
<path d="M349.971 929.942C330.931 910.902 315.827 888.297 305.522 863.419C295.217 838.541 289.913 811.877 289.913 784.95C289.913 758.022 295.217 731.358 305.522 706.48C315.827 681.602 330.931 658.998 349.971 639.957L494.964 784.95L349.971 929.942Z" fill="#E1F7FA"/>
<circle cx="1147.43" cy="1147.43" r="102.525" transform="rotate(135 1147.43 1147.43)" fill="#FBDBDF"/>
<path d="M929.943 929.942C948.983 948.983 964.087 971.588 974.392 996.466C984.697 1021.34 990.001 1048.01 990.001 1074.94C990.001 1101.86 984.697 1128.53 974.392 1153.4C964.087 1178.28 948.983 1200.89 929.943 1219.93L784.95 1074.94L929.943 929.942Z" fill="#E1F7FA"/>
<path d="M639.957 639.957C658.998 658.997 674.102 681.602 684.406 706.48C694.711 731.358 700.015 758.022 700.015 784.95C700.015 811.877 694.711 838.541 684.406 863.419C674.102 888.297 658.998 910.902 639.957 929.942L494.964 784.95L639.957 639.957Z" fill="#E1F7FA"/>
<path d="M1219.93 929.942C1200.89 948.983 1178.28 964.087 1153.4 974.392C1128.53 984.696 1101.86 990 1074.94 990C1048.01 990 1021.34 984.696 996.465 974.392C971.588 964.087 948.983 948.983 929.942 929.942L1074.94 784.949L1219.93 929.942Z" fill="#E1F7FA"/>
<path d="M349.971 349.971C369.012 369.012 384.116 391.616 394.421 416.494C404.725 441.372 410.029 468.036 410.029 494.964C410.029 521.892 404.725 548.556 394.421 573.434C384.116 598.311 369.012 620.916 349.971 639.957L204.978 494.964L349.971 349.971Z" fill="#E1F7FA"/>
<path d="M929.942 639.957C910.902 658.997 888.297 674.101 863.419 684.406C838.541 694.711 811.877 700.015 784.949 700.015C758.022 700.015 731.358 694.711 706.48 684.406C681.602 674.101 658.997 658.997 639.957 639.957L784.95 494.964L929.942 639.957Z" fill="#E1F7FA"/>
<path d="M639.957 349.971C620.916 369.012 598.311 384.116 573.433 394.42C548.556 404.725 521.892 410.029 494.964 410.029C468.036 410.029 441.372 404.725 416.494 394.42C391.616 384.116 369.012 369.012 349.971 349.971L494.964 204.978L639.957 349.971Z" fill="#E1F7FA"/>
<path d="M494.964 494.964C514.005 514.005 529.109 536.609 539.414 561.487C549.718 586.365 555.022 613.029 555.022 639.957C555.022 666.885 549.718 693.549 539.414 718.426C529.109 743.304 514.005 765.909 494.964 784.95L349.971 639.957L494.964 494.964Z" fill="#E1F7FA"/>
<path d="M784.95 494.964C765.909 514.005 743.304 529.109 718.426 539.413C693.548 549.718 666.884 555.022 639.957 555.022C613.029 555.022 586.365 549.718 561.487 539.413C536.609 529.109 514.005 514.005 494.964 494.964L639.957 349.971L784.95 494.964Z" fill="#E1F7FA"/>
<path d="M1074.94 784.95C1055.89 765.909 1033.29 750.805 1008.41 740.5C983.534 730.195 956.87 724.892 929.943 724.892C903.015 724.892 876.351 730.195 851.473 740.5C826.595 750.805 803.991 765.909 784.95 784.95C765.909 803.99 750.805 826.595 740.5 851.473C730.196 876.351 724.892 903.015 724.892 929.942C724.892 956.87 730.196 983.534 740.5 1008.41C750.805 1033.29 765.909 1055.89 784.95 1074.94L929.943 929.942L1074.94 784.95Z" fill="#E1F7FA"/>
<circle cx="204.943" cy="205.014" r="205.051" transform="rotate(-45 204.943 205.014)" fill="#FBDBDF"/>
</g>
</svg>
