<svg width="273" height="272" viewBox="0 0 273 272" fill="none" xmlns="http://www.w3.org/2000/svg">
<g opacity="0.4">
<circle cx="126.396" cy="145.309" r="35.7505" transform="rotate(-135 126.396 145.309)" fill="#FBDBDF"/>
<path d="M202.235 69.4714C195.596 76.1109 187.714 81.3777 179.039 84.9709C170.364 88.5642 161.066 90.4136 151.676 90.4136C142.287 90.4136 132.989 88.5642 124.314 84.9709C115.639 81.3777 107.757 76.1109 101.117 69.4714L151.676 18.9125L202.235 69.4714Z" fill="#E1F7FA"/>
<path d="M303.353 -31.6465C296.714 -25.007 288.832 -19.7403 280.157 -16.147C271.482 -12.5537 262.184 -10.7043 252.794 -10.7043C243.405 -10.7043 234.107 -12.5537 225.432 -16.147C216.757 -19.7403 208.875 -25.007 202.235 -31.6465L252.794 -82.2054L303.353 -31.6465Z" fill="#E1F7FA"/>
<path d="M202.235 170.589C195.596 163.95 190.329 156.067 186.736 147.392C183.143 138.717 181.293 129.42 181.293 120.03C181.293 110.64 183.143 101.343 186.736 92.6678C190.329 83.9929 195.596 76.1107 202.235 69.4712L252.794 120.03L202.235 170.589Z" fill="#E1F7FA"/>
<path d="M303.353 69.4713C296.713 62.8318 291.447 54.9496 287.853 46.2747C284.26 37.5998 282.411 28.3021 282.411 18.9124C282.411 9.52276 284.26 0.225044 287.853 -8.44987C291.447 -17.1248 296.713 -25.007 303.353 -31.6465L353.912 18.9124L303.353 69.4713Z" fill="#E1F7FA"/>
<path d="M252.794 120.03C259.434 113.391 264.701 105.509 268.294 96.8336C271.887 88.1587 273.737 78.861 273.737 69.4713C273.737 60.0817 271.887 50.784 268.294 42.1091C264.701 33.4341 259.434 25.5519 252.794 18.9124C246.155 12.2729 238.273 7.0062 229.598 3.41294C220.923 -0.18033 211.625 -2.02976 202.235 -2.02976C192.846 -2.02977 183.548 -0.180336 174.873 3.41293C166.198 7.00619 158.316 12.2729 151.677 18.9124L202.235 69.4713L252.794 120.03Z" fill="#E1F7FA"/>
</g>
</svg>
