<svg width="23" height="22" viewBox="0 0 23 22" fill="none" xmlns="http://www.w3.org/2000/svg">
<g clip-path="url(#clip0_1309_13846)">
<path fill-rule="evenodd" clip-rule="evenodd" d="M10.4042 0.0280073C3.64325 0.754942 -0.853388 7.23246 0.840997 13.804C2.34657 19.6431 8.4074 23.1793 14.3039 21.659C20.143 20.1534 23.6793 14.0926 22.1589 8.19606C21.0848 4.0303 17.6102 0.868902 13.2855 0.122662C12.7819 0.0357623 10.9055 -0.0258927 10.4042 0.0280073ZM12.6694 1.87221C14.3163 2.10145 15.6889 2.66262 17.0131 3.64822L17.3915 3.92987L17.2495 4.05131C16.6196 4.58965 15.9509 5.08806 15.3241 5.48654C14.4441 6.046 12.7775 6.88194 12.7004 6.80263C12.6817 6.78338 12.4782 6.43886 12.2483 6.03714C11.5367 4.79387 10.654 3.41348 9.9496 2.44256L9.61746 1.9848L9.88195 1.93557C10.6583 1.7912 11.8867 1.76326 12.6694 1.87221ZM8.15517 3.08304C9.11839 4.40865 10.9414 7.28047 10.9414 7.4722C10.9414 7.54612 9.10821 8.03331 8.01916 8.24886C6.40012 8.56929 4.29879 8.80535 3.04501 8.80771L2.56079 8.80859L2.58774 8.69045C3.04655 6.6791 4.61422 4.50935 6.49406 3.2839C6.80773 3.07941 7.70676 2.58034 7.76423 2.5788C7.77749 2.57841 7.95343 2.80534 8.15517 3.08304ZM19.1659 5.92973C20.0623 7.2918 20.5493 8.70646 20.677 10.3193L20.7064 10.6914L20.4047 10.6339C18.8394 10.3356 17.0195 10.2815 15.5175 10.4886C15.1394 10.5408 14.7646 10.5853 14.6847 10.5876L14.5393 10.5918L14.2094 9.86135C14.0279 9.45957 13.8393 9.05351 13.7902 8.95902C13.7411 8.86447 13.6711 8.71526 13.6345 8.62742L13.568 8.4677L14.3502 8.08732C15.9799 7.29483 17.2758 6.45322 18.4179 5.44551L18.6542 5.237L18.7758 5.37923C18.8426 5.4575 19.0182 5.70516 19.1659 5.92973ZM12.4107 10.3309C12.5962 10.731 12.733 11.0717 12.7148 11.0882C12.6965 11.1047 12.4302 11.2104 12.123 11.3231C9.49167 12.2882 6.73452 14.2395 4.82294 16.4893C4.4193 16.9643 4.48167 16.9558 4.19072 16.5752C3.00712 15.0269 2.3057 13.0227 2.30488 11.1867L2.30466 10.6645L2.74504 10.6397C2.98732 10.6261 3.48518 10.6036 3.85153 10.5898C6.25558 10.4991 9.60118 9.89946 11.5859 9.20355L11.8222 9.12066L11.9478 9.36211C12.0169 9.49488 12.2252 9.93081 12.4107 10.3309ZM19.1269 12.265C20.0624 12.3947 20.5664 12.5067 20.5664 12.5848C20.5664 12.7037 20.3203 13.6647 20.2075 13.9863C19.6409 15.6019 18.6172 17.0611 17.3007 18.1293C16.9187 18.4394 16.9717 18.5005 16.7632 17.5098C16.4783 16.156 16.0102 14.5148 15.4808 13.0136L15.2438 12.3417L15.3592 12.3188C15.4227 12.3063 15.6679 12.2752 15.9042 12.2497C16.1406 12.2243 16.4016 12.1954 16.4843 12.1856C16.8136 12.1467 18.6778 12.2027 19.1269 12.265ZM13.7692 13.6641C14.4421 15.5536 15.3695 19.0868 15.2645 19.3605C15.2326 19.4436 14.3907 19.754 13.757 19.9165C11.1309 20.5895 8.24015 20.0306 6.08541 18.4333C5.72632 18.1671 5.73237 18.2288 6.03118 17.8816C8.04748 15.5394 10.3496 13.8929 12.9179 12.9563C13.1897 12.8572 13.4253 12.7873 13.4414 12.8012C13.4576 12.8149 13.6051 13.2033 13.7692 13.6641Z" fill="#09444C"/>
</g>
<defs>
<clipPath id="clip0_1309_13846">
<rect width="22" height="22" fill="white" transform="translate(0.5)"/>
</clipPath>
</defs>
</svg>
