<svg width="28" height="28" viewBox="0 0 28 28" fill="none" xmlns="http://www.w3.org/2000/svg">
<path d="M6.47635 25.1084C8.31214 25.1084 9.80035 23.6202 9.80035 21.7844C9.80035 19.9486 8.31214 18.4604 6.47635 18.4604C4.64055 18.4604 3.15234 19.9486 3.15234 21.7844C3.15234 23.6202 4.64055 25.1084 6.47635 25.1084Z" fill="#1C81B4"/>
<path d="M6.22265 18.1054C5.51149 18.1054 4.8163 18.3163 4.22499 18.7114C3.63368 19.1065 3.17281 19.6681 2.90066 20.3251C2.62851 20.9821 2.55731 21.7051 2.69605 22.4026C2.83479 23.1001 3.17724 23.7408 3.68011 24.2436C4.18298 24.7465 4.82365 25.089 5.52115 25.2277C6.21864 25.3664 6.94163 25.2952 7.59866 25.0231C8.25569 24.7509 8.81725 24.2901 9.21235 23.6988C9.60745 23.1075 9.81832 22.4123 9.81832 21.7011C9.81821 20.7475 9.43935 19.833 8.76505 19.1587C8.09076 18.4844 7.17625 18.1055 6.22265 18.1054V18.1054ZM6.47683 25.1085C5.8194 25.1085 5.17675 24.9135 4.63012 24.5483C4.08349 24.183 3.65742 23.6639 3.40584 23.0565C3.15425 22.4491 3.08843 21.7807 3.21669 21.136C3.34495 20.4912 3.66154 19.8989 4.12641 19.434C4.59128 18.9691 5.18356 18.6526 5.82835 18.5243C6.47315 18.3961 7.14149 18.4619 7.74887 18.7135C8.35625 18.9651 8.87538 19.3911 9.24063 19.9377C9.60588 20.4843 9.80082 21.127 9.80082 21.7845C9.80093 22.221 9.71502 22.6533 9.54802 23.0566C9.38101 23.46 9.13618 23.8264 8.82749 24.1351C8.51881 24.4438 8.15233 24.6886 7.749 24.8556C7.34566 25.0227 6.91337 25.1086 6.47683 25.1085Z" fill="#196C89"/>
<path d="M14.2654 24.9053C16.1012 24.9053 17.5894 23.4171 17.5894 21.5813C17.5894 19.7455 16.1012 18.2573 14.2654 18.2573C12.4296 18.2573 10.9414 19.7455 10.9414 21.5813C10.9414 23.4171 12.4296 24.9053 14.2654 24.9053Z" fill="#1C81B4"/>
<path d="M16.5693 19.1598C16.0664 18.6568 15.4255 18.3143 14.7279 18.1755C14.0302 18.0367 13.3071 18.1079 12.6499 18.3802C11.9927 18.6524 11.431 19.1133 11.0358 19.7048C10.6406 20.2962 10.4297 20.9916 10.4297 21.7029C10.4297 22.4142 10.6406 23.1096 11.0358 23.701C11.431 24.2925 11.9927 24.7535 12.6499 25.0257C13.3071 25.2979 14.0302 25.3691 14.7279 25.2303C15.4255 25.0915 16.0664 24.749 16.5693 24.246C17.2438 23.5715 17.6227 22.6568 17.6227 21.7029C17.6227 20.7491 17.2438 19.8343 16.5693 19.1598V19.1598ZM11.9136 23.9314C11.4487 23.4666 11.1321 22.8744 11.0038 22.2297C10.8756 21.585 10.9414 20.9167 11.1929 20.3093C11.4445 19.702 11.8704 19.1829 12.417 18.8177C12.9636 18.4525 13.6062 18.2575 14.2635 18.2575C14.9209 18.2575 15.5635 18.4525 16.1101 18.8177C16.6566 19.1829 17.0826 19.702 17.3342 20.3093C17.5857 20.9167 17.6515 21.585 17.5232 22.2297C17.3949 22.8744 17.0784 23.4666 16.6135 23.9314C16.3049 24.24 15.9386 24.4849 15.5354 24.6519C15.1321 24.8189 14.7 24.9049 14.2635 24.9049C13.8271 24.9049 13.3949 24.8189 12.9917 24.6519C12.5885 24.4849 12.2222 24.24 11.9136 23.9314Z" fill="#196C89"/>
<path d="M21.8631 24.772C23.6989 24.772 25.1871 23.2838 25.1871 21.448C25.1871 19.6122 23.6989 18.124 21.8631 18.124C20.0273 18.124 18.5391 19.6122 18.5391 21.448C18.5391 23.2838 20.0273 24.772 21.8631 24.772Z" fill="#1C81B4"/>
<path d="M21.7793 18.1054C21.0681 18.1054 20.3729 18.3163 19.7816 18.7114C19.1903 19.1065 18.7294 19.6681 18.4573 20.3251C18.1851 20.9821 18.1139 21.7051 18.2527 22.4026C18.3914 23.1001 18.7339 23.7408 19.2367 24.2436C19.7396 24.7465 20.3803 25.089 21.0778 25.2277C21.7753 25.3664 22.4982 25.2952 23.1553 25.0231C23.8123 24.7509 24.3739 24.2901 24.769 23.6988C25.1641 23.1075 25.375 22.4123 25.375 21.7011C25.3749 20.7475 24.996 19.833 24.3217 19.1587C23.6474 18.4844 22.7329 18.1055 21.7793 18.1054V18.1054ZM21.8626 24.7726C21.2052 24.7726 20.5625 24.5776 20.0159 24.2124C19.4693 23.8471 19.0432 23.328 18.7916 22.7206C18.5401 22.1132 18.4742 21.4449 18.6025 20.8001C18.7308 20.1553 19.0473 19.563 19.5122 19.0982C19.9771 18.6333 20.5693 18.3167 21.2141 18.1884C21.8589 18.0602 22.5273 18.126 23.1346 18.3776C23.742 18.6292 24.2612 19.0552 24.6264 19.6019C24.9917 20.1485 25.1866 20.7912 25.1866 21.4486C25.1863 22.3299 24.8359 23.1749 24.2126 23.7979C23.5892 24.4209 22.7439 24.7707 21.8626 24.7705V24.7726Z" fill="#196C89"/>
<path d="M6.13845 9.79101C7.97425 9.79101 9.46246 8.3028 9.46246 6.46701C9.46246 4.63121 7.97425 3.14301 6.13845 3.14301C4.30266 3.14301 2.81445 4.63121 2.81445 6.46701C2.81445 8.3028 4.30266 9.79101 6.13845 9.79101Z" fill="#1C81B4"/>
<path d="M6.22265 2.61713C5.51149 2.61713 4.8163 2.82801 4.22499 3.22311C3.63368 3.61821 3.17281 4.17977 2.90066 4.8368C2.62851 5.49383 2.55731 6.21681 2.69605 6.9143C2.83479 7.6118 3.17724 8.25248 3.68011 8.75535C4.18298 9.25822 4.82365 9.60067 5.52115 9.73941C6.21864 9.87815 6.94163 9.80695 7.59866 9.5348C8.25569 9.26265 8.81725 8.80178 9.21235 8.21047C9.60745 7.61916 9.81832 6.92397 9.81832 6.21281C9.81821 5.25921 9.43935 4.3447 8.76505 3.67041C8.09076 2.99611 7.17625 2.61724 6.22265 2.61713V2.61713ZM6.1393 9.791C5.48187 9.791 4.83922 9.59606 4.29259 9.23081C3.74596 8.86557 3.3199 8.34642 3.06831 7.73904C2.81673 7.13166 2.75091 6.46332 2.87917 5.81852C3.00742 5.17373 3.32402 4.58145 3.78889 4.11658C4.25376 3.65171 4.84604 3.33513 5.49083 3.20687C6.13562 3.07862 6.80396 3.14443 7.41134 3.39602C8.01873 3.64761 8.53786 4.07366 8.90311 4.62029C9.26835 5.16692 9.4633 5.80958 9.4633 6.46701C9.46341 6.90355 9.3775 7.33584 9.21049 7.73918C9.04348 8.14251 8.79865 8.50899 8.48997 8.81767C8.18128 9.12636 7.81481 9.37119 7.41147 9.5382C7.00814 9.70521 6.57585 9.79111 6.1393 9.791V9.791Z" fill="#196C89"/>
<path d="M13.7888 9.6582C15.6246 9.6582 17.1128 8.16999 17.1128 6.33419C17.1128 4.4984 15.6246 3.01019 13.7888 3.01019C11.9531 3.01019 10.4648 4.4984 10.4648 6.33419C10.4648 8.16999 11.9531 9.6582 13.7888 9.6582Z" fill="#1C81B4"/>
<path d="M16.5693 3.67054C16.0664 3.16756 15.4255 2.82502 14.7279 2.68624C14.0302 2.54746 13.3071 2.61868 12.6499 2.89089C11.9927 3.1631 11.431 3.62408 11.0358 4.21553C10.6406 4.80697 10.4297 5.50232 10.4297 6.21365C10.4297 6.92498 10.6406 7.62033 11.0358 8.21178C11.431 8.80322 11.9927 9.26419 12.6499 9.5364C13.3071 9.80861 14.0302 9.87984 14.7279 9.74106C15.4255 9.60229 16.0664 9.25975 16.5693 8.75676C17.2438 8.08228 17.6227 7.1675 17.6227 6.21365C17.6227 5.2598 17.2438 4.34502 16.5693 3.67054V3.67054ZM16.1389 8.68383C15.6741 9.14855 15.082 9.46501 14.4374 9.59321C13.7928 9.7214 13.1246 9.65557 12.5174 9.40404C11.9102 9.1525 11.3912 8.72656 11.026 8.18007C10.6609 7.63359 10.466 6.99111 10.466 6.33386C10.466 5.67662 10.6609 5.03413 11.026 4.48765C11.3912 3.94117 11.9102 3.51522 12.5174 3.26369C13.1246 3.01215 13.7928 2.94633 14.4374 3.07453C15.082 3.20272 15.6741 3.51918 16.1389 3.98389C16.4476 4.29246 16.6924 4.65881 16.8595 5.06202C17.0266 5.46524 17.1125 5.89741 17.1125 6.33386C17.1125 6.77031 17.0266 7.20249 16.8595 7.6057C16.6924 8.00892 16.4476 8.37527 16.1389 8.68383V8.68383Z" fill="#196C89"/>
<path d="M21.5252 9.45361C23.361 9.45361 24.8492 7.9654 24.8492 6.1296C24.8492 4.29381 23.361 2.8056 21.5252 2.8056C19.6894 2.8056 18.2012 4.29381 18.2012 6.1296C18.2012 7.9654 19.6894 9.45361 21.5252 9.45361Z" fill="#1C81B4"/>
<path d="M21.7793 2.61713C21.0681 2.61713 20.3729 2.82801 19.7816 3.22311C19.1903 3.61821 18.7294 4.17977 18.4573 4.8368C18.1851 5.49383 18.1139 6.21681 18.2527 6.9143C18.3914 7.6118 18.7339 8.25248 19.2367 8.75535C19.7396 9.25822 20.3803 9.60067 21.0778 9.73941C21.7753 9.87815 22.4982 9.80695 23.1553 9.5348C23.8123 9.26265 24.3739 8.80178 24.769 8.21047C25.1641 7.61916 25.375 6.92397 25.375 6.21281C25.3749 5.25921 24.996 4.3447 24.3217 3.67041C23.6474 2.99611 22.7329 2.61724 21.7793 2.61713ZM21.5251 9.45306C20.8677 9.45306 20.225 9.25811 19.6784 8.89287C19.1317 8.52762 18.7057 8.00848 18.4541 7.40109C18.2025 6.79371 18.1367 6.12537 18.265 5.48058C18.3932 4.83579 18.7098 4.24351 19.1747 3.77864C19.6395 3.31377 20.2318 2.99719 20.8766 2.86893C21.5214 2.74067 22.1897 2.8065 22.7971 3.05809C23.4045 3.30967 23.9236 3.73571 24.2889 4.28234C24.6541 4.82897 24.8491 5.47164 24.8491 6.12906C24.8492 6.56557 24.7633 6.99782 24.5963 7.40113C24.4293 7.80444 24.1845 8.1709 23.8759 8.47958C23.5673 8.78826 23.2008 9.03311 22.7976 9.20014C22.3943 9.36717 21.962 9.45312 21.5255 9.45306H21.5251Z" fill="#196C89"/>
<path d="M6.34353 17.5244C8.17933 17.5244 9.66753 16.0362 9.66753 14.2004C9.66753 12.3646 8.17933 10.8764 6.34353 10.8764C4.50774 10.8764 3.01953 12.3646 3.01953 14.2004C3.01953 16.0362 4.50774 17.5244 6.34353 17.5244Z" fill="#1C81B4"/>
<path d="M8.76466 11.4201C8.26168 10.9171 7.62085 10.5745 6.92319 10.4357C6.22553 10.297 5.50238 10.3682 4.84519 10.6404C4.18801 10.9126 3.62632 11.3736 3.23112 11.965C2.83593 12.5565 2.625 13.2518 2.625 13.9632C2.625 14.6745 2.83593 15.3699 3.23112 15.9613C3.62632 16.5527 4.18801 17.0137 4.84519 17.2859C5.50238 17.5581 6.22553 17.6293 6.92319 17.4906C7.62085 17.3518 8.26168 17.0093 8.76466 16.5063C9.43913 15.8318 9.81803 14.917 9.81803 13.9632C9.81803 13.0093 9.43913 12.0945 8.76466 11.4201V11.4201ZM8.6934 16.5504C8.22863 17.0151 7.63651 17.3316 6.99189 17.4598C6.34727 17.588 5.67909 17.5222 5.07188 17.2707C4.46467 17.0191 3.94569 16.5932 3.58055 16.0467C3.21541 15.5002 3.02054 14.8577 3.02054 14.2005C3.02054 13.5432 3.21541 12.9007 3.58055 12.3543C3.94569 11.8078 4.46467 11.3818 5.07188 11.1303C5.67909 10.8788 6.34727 10.8129 6.99189 10.9411C7.63651 11.0693 8.22863 11.3858 8.6934 11.8505C9.00207 12.1591 9.24694 12.5254 9.414 12.9286C9.58106 13.3319 9.66703 13.764 9.66703 14.2005C9.66703 14.6369 9.58106 15.0691 9.414 15.4723C9.24694 15.8755 9.00207 16.2419 8.6934 16.5504V16.5504Z" fill="#196C89"/>
<path d="M21.658 17.0483C23.4938 17.0483 24.982 15.5601 24.982 13.7243C24.982 11.8885 23.4938 10.4003 21.658 10.4003C19.8222 10.4003 18.334 11.8885 18.334 13.7243C18.334 15.5601 19.8222 17.0483 21.658 17.0483Z" fill="#1C81B4"/>
<path d="M24.3194 11.4201C23.8164 10.9171 23.1755 10.5745 22.4779 10.4357C21.7802 10.297 21.0571 10.3682 20.3999 10.6404C19.7427 10.9126 19.181 11.3736 18.7858 11.965C18.3906 12.5565 18.1797 13.2518 18.1797 13.9632C18.1797 14.6745 18.3906 15.3699 18.7858 15.9613C19.181 16.5527 19.7427 17.0137 20.3999 17.2859C21.0571 17.5581 21.7802 17.6293 22.4779 17.4906C23.1755 17.3518 23.8164 17.0093 24.3194 16.5063C24.9938 15.8318 25.3727 14.917 25.3727 13.9632C25.3727 13.0093 24.9938 12.0945 24.3194 11.4201V11.4201ZM24.006 16.0741C23.5412 16.539 22.949 16.8556 22.3043 16.9839C21.6595 17.1121 20.9913 17.0464 20.3839 16.7948C19.7766 16.5433 19.2575 16.1173 18.8923 15.5707C18.5271 15.0241 18.3321 14.3816 18.3321 13.7242C18.3321 13.0668 18.5271 12.4242 18.8923 11.8777C19.2575 11.3311 19.7766 10.9051 20.3839 10.6535C20.9913 10.402 21.6595 10.3362 22.3043 10.4645C22.949 10.5928 23.5412 10.9094 24.006 11.3742C24.3147 11.6827 24.5596 12.049 24.7268 12.4522C24.8939 12.8554 24.98 13.2875 24.9801 13.7239C24.9802 14.1604 24.8944 14.5925 24.7275 14.9958C24.5605 15.3991 24.3158 15.7655 24.0073 16.0741H24.006Z" fill="#196C89"/>
<path d="M14.0275 11.8083C13.3212 11.8083 12.7657 10.997 11.8711 10.997C11.2619 10.997 10.8151 11.4554 10.5918 12.1888C10.7506 12.4459 11.1381 12.7026 12.1386 12.6584C13.0641 12.6167 13.6558 12.1513 14.5396 11.6792C14.3806 11.7596 14.2056 11.8037 14.0275 11.8083Z" fill="#B42533"/>
<path d="M16.1836 10.9975C15.7088 11.039 15.2551 11.2122 14.8735 11.4975C14.8388 11.5212 14.8024 11.5423 14.7647 11.5609L14.7568 11.565C14.6843 11.6067 14.613 11.6442 14.5418 11.678C13.658 12.1501 13.0663 12.6168 12.1408 12.6572C11.1407 12.7018 10.7527 12.4447 10.594 12.1876C10.4824 12.5762 10.4285 12.9792 10.434 13.3835C10.4554 14.3213 10.8442 15.2131 11.5167 15.867C12.1892 16.5209 13.0916 16.8845 14.0296 16.8796V16.8796C14.9676 16.8845 15.8701 16.5209 16.5426 15.867C17.2151 15.2131 17.6039 14.3213 17.6253 13.3835C17.6228 11.9851 17.0782 10.9975 16.1836 10.9975Z" fill="#EE3135"/>
</svg>
