<svg width="25" height="24" viewBox="0 0 25 24" fill="none" xmlns="http://www.w3.org/2000/svg">
<path d="M20.7 5.95C20.7 6.86127 19.9613 7.6 19.05 7.6C18.1387 7.6 17.4 6.86127 17.4 5.95C17.4 5.03873 18.1387 4.3 19.05 4.3C19.9613 4.3 20.7 5.03873 20.7 5.95Z" fill="#09444C"/>
<path fill-rule="evenodd" clip-rule="evenodd" d="M13 17.5C16.0376 17.5 18.5 15.0376 18.5 12C18.5 8.96243 16.0376 6.5 13 6.5C9.96243 6.5 7.5 8.96243 7.5 12C7.5 15.0376 9.96243 17.5 13 17.5ZM13 15.3C14.8225 15.3 16.3 13.8225 16.3 12C16.3 10.1775 14.8225 8.7 13 8.7C11.1775 8.7 9.7 10.1775 9.7 12C9.7 13.8225 11.1775 15.3 13 15.3Z" fill="#09444C"/>
<path fill-rule="evenodd" clip-rule="evenodd" d="M2 11.56C2 7.86365 2 6.01548 2.71936 4.60366C3.35212 3.36179 4.36179 2.35212 5.60366 1.71936C7.01548 1 8.86365 1 12.56 1H13.44C17.1363 1 18.9845 1 20.3963 1.71936C21.6382 2.35212 22.6479 3.36179 23.2806 4.60366C24 6.01548 24 7.86365 24 11.56V12.44C24 16.1363 24 17.9845 23.2806 19.3963C22.6479 20.6382 21.6382 21.6479 20.3963 22.2806C18.9845 23 17.1363 23 13.44 23H12.56C8.86365 23 7.01548 23 5.60366 22.2806C4.36179 21.6479 3.35212 20.6382 2.71936 19.3963C2 17.9845 2 16.1363 2 12.44V11.56ZM12.56 3.2H13.44C15.3245 3.2 16.6055 3.20171 17.5957 3.28261C18.5602 3.36142 19.0535 3.50425 19.3976 3.67957C20.2255 4.10141 20.8986 4.77453 21.3204 5.60244C21.4957 5.94652 21.6386 6.43977 21.7174 7.40428C21.7983 8.39448 21.8 9.67552 21.8 11.56V12.44C21.8 14.3245 21.7983 15.6055 21.7174 16.5957C21.6386 17.5602 21.4957 18.0535 21.3204 18.3976C20.8986 19.2255 20.2255 19.8986 19.3976 20.3204C19.0535 20.4957 18.5602 20.6386 17.5957 20.7174C16.6055 20.7983 15.3245 20.8 13.44 20.8H12.56C10.6755 20.8 9.39448 20.7983 8.40428 20.7174C7.43977 20.6386 6.94652 20.4957 6.60244 20.3204C5.77453 19.8986 5.10141 19.2255 4.67957 18.3976C4.50425 18.0535 4.36142 17.5602 4.28261 16.5957C4.20171 15.6055 4.2 14.3245 4.2 12.44V11.56C4.2 9.67552 4.20171 8.39448 4.28261 7.40428C4.36142 6.43977 4.50425 5.94652 4.67957 5.60244C5.10141 4.77453 5.77453 4.10141 6.60244 3.67957C6.94652 3.50425 7.43977 3.36142 8.40428 3.28261C9.39448 3.20171 10.6755 3.2 12.56 3.2Z" fill="#09444C"/>
</svg>
