<svg width="25" height="24" viewBox="0 0 25 24" fill="none" xmlns="http://www.w3.org/2000/svg">
<path d="M9.10103 4.93388C9.10103 6.00194 8.18298 6.86777 7.05052 6.86777C5.91805 6.86777 5 6.00194 5 4.93388C5 3.86583 5.91805 3 7.05052 3C8.18298 3 9.10103 3.86583 9.10103 4.93388Z" fill="#09444C"/>
<path d="M5.28041 8.28926H8.78557V19H5.28041V8.28926Z" fill="#09444C"/>
<path d="M14.4289 8.28926H10.9237V19H14.4289C14.4289 19 14.4289 15.6281 14.4289 13.5198C14.4289 12.2544 14.8573 10.9835 16.567 10.9835C18.4992 10.9835 18.4875 12.6395 18.4785 13.9224C18.4667 15.5994 18.4948 17.3107 18.4948 19H22V13.3471C21.9703 9.73757 21.0376 8.07438 17.9691 8.07438C16.1468 8.07438 15.0172 8.90864 14.4289 9.66342V8.28926Z" fill="#09444C"/>
</svg>
