<svg width="17" height="16" viewBox="0 0 17 16" fill="none" xmlns="http://www.w3.org/2000/svg">
<path d="M4.10103 1.93388C4.10103 3.00194 3.18298 3.86777 2.05052 3.86777C0.918047 3.86777 0 3.00194 0 1.93388C0 0.86583 0.918047 0 2.05052 0C3.18298 0 4.10103 0.86583 4.10103 1.93388Z" fill="#09444C"/>
<path d="M0.280412 5.28926H3.78557V16H0.280412V5.28926Z" fill="#09444C"/>
<path d="M9.42887 5.28926H5.92371V16H9.42887C9.42887 16 9.42887 12.6281 9.42887 10.5198C9.42887 9.25442 9.85734 7.98347 11.567 7.98347C13.4992 7.98347 13.4875 9.63947 13.4785 10.9224C13.4667 12.5994 13.4948 14.3107 13.4948 16H17V10.3471C16.9703 6.73757 16.0376 5.07438 12.9691 5.07438C11.1468 5.07438 10.0172 5.90864 9.42887 6.66342V5.28926Z" fill="#09444C"/>
</svg>
