<svg width="89" height="88" viewBox="0 0 89 88" fill="none" xmlns="http://www.w3.org/2000/svg">
<path d="M88.6841 36.705V50.993C88.6847 51.9297 88.5007 52.8574 88.1425 53.7229C87.7843 54.5885 87.259 55.3749 86.5966 56.0372C85.9341 56.6995 85.1476 57.2247 84.282 57.5828C83.4165 57.9409 82.4888 58.1248 81.5521 58.124H52.975C52.0381 58.1231 51.1101 58.307 50.2443 58.6651C49.3784 59.0232 48.5917 59.5486 47.9292 60.2112C47.2667 60.8737 46.7413 61.6604 46.3832 62.5262C46.025 63.3921 45.8411 64.32 45.842 65.257V65.257C45.843 66.194 45.6591 67.1219 45.301 67.9878C44.9428 68.8536 44.4174 69.6403 43.7549 70.3028C43.0923 70.9654 42.3057 71.4908 41.4398 71.8489C40.574 72.2071 39.646 72.3909 38.709 72.39C37.7721 72.3909 36.8441 72.2071 35.9783 71.8489C35.1124 71.4908 34.3258 70.9654 33.6632 70.3028C33.0007 69.6403 32.4753 68.8536 32.1171 67.9878C31.759 67.1219 31.5751 66.194 31.5761 65.257V65.257C31.577 64.32 31.3931 63.3921 31.035 62.5262C30.6768 61.6604 30.1514 60.8737 29.4889 60.2112C28.8264 59.5486 28.0397 59.0232 27.1738 58.6651C26.308 58.307 25.38 58.1231 24.4431 58.124V58.124C23.5061 58.1249 22.5781 57.9411 21.7123 57.5829C20.8465 57.2248 20.0598 56.6994 19.3972 56.0368C18.7347 55.3743 18.2093 54.5876 17.8511 53.7218C17.493 52.8559 17.3091 51.928 17.3101 50.991V22.417C17.3091 21.48 17.493 20.5521 17.8511 19.6862C18.2093 18.8204 18.7347 18.0337 19.3972 17.3712C20.0598 16.7086 20.8465 16.1832 21.7123 15.8251C22.5781 15.467 23.5061 15.2831 24.4431 15.284V15.284C25.38 15.2831 26.308 15.467 27.1738 15.8251C28.0397 16.1832 28.8264 16.7086 29.4889 17.3712C30.1514 18.0337 30.6768 18.8204 31.035 19.6862C31.3931 20.5521 31.577 21.48 31.5761 22.417V36.705C31.5751 37.642 31.759 38.5699 32.1171 39.4358C32.4753 40.3016 33.0007 41.0883 33.6632 41.7508C34.3258 42.4134 35.1124 42.9388 35.9783 43.2969C36.8441 43.655 37.7721 43.8389 38.709 43.838V43.838C39.646 43.8389 40.574 43.655 41.4398 43.2969C42.3057 42.9388 43.0923 42.4134 43.7549 41.7508C44.4174 41.0883 44.9428 40.3016 45.301 39.4358C45.6591 38.5699 45.843 37.642 45.842 36.705V22.417C45.8411 21.48 46.025 20.5521 46.3832 19.6862C46.7413 18.8204 47.2667 18.0337 47.9292 17.3712C48.5917 16.7086 49.3784 16.1832 50.2443 15.8251C51.1101 15.467 52.0381 15.2831 52.975 15.284V15.284C53.912 15.2831 54.84 15.467 55.7058 15.8251C56.5716 16.1832 57.3584 16.7086 58.0209 17.3712C58.6835 18.0337 59.2088 18.8204 59.567 19.6862C59.9251 20.5521 60.109 21.48 60.108 22.417V36.705C60.1071 37.642 60.291 38.5699 60.6492 39.4358C61.0073 40.3016 61.5327 41.0883 62.1952 41.7508C62.8577 42.4134 63.6445 42.9388 64.5103 43.2969C65.3761 43.655 66.3041 43.8389 67.2411 43.838V43.838C68.1781 43.8389 69.106 43.655 69.9718 43.2969C70.8376 42.9388 71.6244 42.4134 72.2869 41.7508C72.9495 41.0883 73.4748 40.3016 73.833 39.4358C74.1911 38.5699 74.375 37.642 74.3741 36.705V36.705C74.3732 35.768 74.557 34.8401 74.9152 33.9742C75.2733 33.1084 75.7987 32.3217 76.4612 31.6592C77.1238 30.9966 77.9105 30.4712 78.7763 30.1131C79.6421 29.755 80.5701 29.5711 81.5071 29.572V29.572C82.4474 29.5666 83.3795 29.7471 84.2498 30.1031C85.1201 30.4591 85.9115 30.9836 86.5784 31.6465C87.2454 32.3093 87.7748 33.0975 88.1361 33.9656C88.4975 34.8337 88.6837 35.7647 88.6841 36.705Z" fill="#096774"/>
<path d="M7.13398 15.284C6.197 15.2849 5.26903 15.1011 4.4032 14.7429C3.53737 14.3848 2.75068 13.8594 2.08814 13.1969C1.42559 12.5343 0.900197 11.7476 0.542057 10.8818C0.183916 10.0159 5.91412e-05 9.08799 0.000980005 8.15101C5.91412e-05 7.21403 0.183916 6.28607 0.542057 5.42024C0.900197 4.55441 1.42559 3.7677 2.08814 3.10516C2.75068 2.44262 3.53737 1.91724 4.4032 1.5591C5.26903 1.20096 6.197 1.01709 7.13398 1.01801V1.01801C8.07095 1.01709 8.99892 1.20096 9.86475 1.5591C10.7306 1.91724 11.5173 2.44262 12.1798 3.10516C12.8424 3.7677 13.3678 4.55441 13.7259 5.42024C14.084 6.28607 14.2679 7.21403 14.267 8.15101C14.2651 10.0422 13.513 11.8555 12.1757 13.1928C10.8384 14.5301 9.0252 15.2822 7.13398 15.284Z" fill="#EA4D5F"/>
<path d="M14.266 65.259V79.547C14.2669 80.484 14.0831 81.4119 13.7249 82.2778C13.3668 83.1436 12.8414 83.9303 12.1788 84.5928C11.5163 85.2554 10.7296 85.7807 9.86377 86.1389C8.99794 86.497 8.06998 86.6809 7.133 86.68V86.68C6.19602 86.6809 5.26806 86.497 4.40223 86.1389C3.53639 85.7807 2.74971 85.2554 2.08716 84.5928C1.42462 83.9303 0.899282 83.1436 0.541141 82.2778C0.183001 81.4119 -0.000917422 80.484 3.44096e-06 79.547V65.259C-0.000917422 64.322 0.183001 63.394 0.541141 62.5282C0.899282 61.6624 1.42462 60.8757 2.08716 60.2131C2.74971 59.5506 3.53639 59.0252 4.40223 58.6671C5.26806 58.3089 6.19602 58.1251 7.133 58.126V58.126C8.06998 58.1251 8.99794 58.3089 9.86377 58.6671C10.7296 59.0252 11.5163 59.5506 12.1788 60.2131C12.8414 60.8757 13.3668 61.6624 13.7249 62.5282C14.0831 63.394 14.2669 64.322 14.266 65.259V65.259Z" fill="#EA4D5F"/>
<path d="M88.6838 8.129C88.6853 9.06623 88.5019 9.99455 88.144 10.8608C87.7862 11.727 87.261 12.5141 86.5985 13.1771C85.936 13.84 85.1492 14.3658 84.2833 14.7242C83.4173 15.0827 82.4891 15.2668 81.5519 15.266H67.2639C66.3269 15.2669 65.3989 15.0831 64.5331 14.7249C63.6673 14.3668 62.8806 13.8414 62.218 13.1789C61.5555 12.5163 61.0301 11.7296 60.6719 10.8638C60.3138 9.99794 60.1299 9.06998 60.1309 8.133V8.133C60.1299 7.19603 60.3138 6.26807 60.6719 5.40223C61.0301 4.5364 61.5555 3.7497 62.218 3.08716C62.8806 2.42461 63.6673 1.89924 64.5331 1.5411C65.3989 1.18295 66.3269 0.999083 67.2639 1H81.5519C83.4422 1.00212 85.2546 1.75379 86.5916 3.0902C87.9285 4.4266 88.6809 6.23865 88.6838 8.129Z" fill="#EA4D5F"/>
<path d="M81.529 86.679C80.5919 86.6799 79.6637 86.496 78.7977 86.1377C77.9318 85.7795 77.145 85.2539 76.4824 84.5912C75.8199 83.9284 75.2945 83.1415 74.9365 82.2754C74.5784 81.4093 74.3948 80.4812 74.396 79.544V79.544C74.3951 78.607 74.5789 77.6791 74.9371 76.8132C75.2952 75.9474 75.8206 75.1607 76.4831 74.4982C77.1456 73.8356 77.9324 73.3102 78.7982 72.9521C79.6641 72.594 80.592 72.4101 81.529 72.411V72.411C82.4659 72.4102 83.3938 72.5942 84.2595 72.9524C85.1252 73.3106 85.9117 73.836 86.5742 74.4985C87.2366 75.161 87.7619 75.9477 88.12 76.8135C88.4781 77.6792 88.6619 78.6071 88.661 79.544C88.6641 80.4816 88.4818 81.4106 88.1246 82.2775C87.7673 83.1444 87.2422 83.9321 86.5793 84.5952C85.9164 85.2584 85.129 85.7839 84.2623 86.1415C83.3955 86.4991 82.4666 86.6818 81.529 86.679Z" fill="#EA4D5F"/>
</svg>
